<svg width="179" height="47" viewBox="0 0 179 47" fill="none" xmlns="http://www.w3.org/2000/svg">
<path d="M118.966 3.27996C92.6055 3.27996 65.6255 1.39815 39.7169 5.94013C34.4485 6.86373 28.449 8.42461 24.3914 11.4716C17.3299 16.7744 10.1859 18.8643 6.0412 26.7992C2.62907 33.3317 6.35343 36.7 14.2585 38.6222C22.5737 40.6442 31.645 40.5223 40.2211 40.5223C52.4971 40.5223 64.5033 40.1722 76.7199 39.1712C98.0539 37.4231 118.26 33.7664 139.131 29.8817C151.105 27.6529 165.002 25.0007 176.033 20.3811C184.119 16.9948 164.874 9.9194 161.565 9.02255C147.655 5.25316 132.909 5.6466 118.462 4.80006C99.2874 3.67651 80.1591 3.27996 60.9407 3.27996C52.4963 3.27996 44.0253 3.13087 35.5831 3.27996C23.4674 3.49392 13.5017 6.1725 1.90735 8.6003" stroke="#102146" stroke-opacity="0.4" stroke-linecap="round" stroke-linejoin="round"/>
<path d="M43.6492 1C26.1616 1 10.5152 7.57958 3.52064 20.7613C1.47578 24.6149 1 27.5162 1 31.782C1 35.8166 6.82131 35.871 10.0743 37.3134C22.9502 43.023 40.1879 45.8429 55.2441 45.8429C65.9906 45.8429 77.1082 46.624 87.6596 44.7028C101.535 42.1763 114.835 39.1285 128.443 35.9622C136.058 34.1906 143.797 32.5031 151.23 30.2619C156.078 28.8 161.563 28.3835 166.152 26.4616C173.078 23.5612 177.041 22.2324 177.041 15.4409C177.041 12.0686 167.083 9.92997 163.934 8.98051C152.224 5.44943 141.32 4.05016 129.149 2.3512C115.133 0.39461 99.9821 1.8728 85.8951 2.47787C78.0569 2.81455 70.3018 2.26845 62.5036 3.11125C57.4011 3.6627 50.2613 1.91834 45.4641 3.44905C37.6059 5.95644 28.2096 5.56339 20.056 7.46042C15.3314 8.55966 12.2152 12.4007 7.35201 12.4007" stroke="#102146" stroke-opacity="0.4" stroke-linecap="round" stroke-linejoin="round"/>
</svg>
