<svg width="54" height="187" viewBox="0 0 54 187" fill="none" xmlns="http://www.w3.org/2000/svg">
<path d="M10.5878 8.6001C9.40482 8.6001 8.66779 8.77125 7.61678 9.07154C7.14321 9.20685 6.15746 10.0411 7.22539 10.0411C7.95635 10.0411 8.67017 9.75796 9.39582 9.8899C10.2238 10.0404 11.0278 10.3613 11.8687 10.3613C13.5387 10.3613 15.1807 10.6816 16.8678 10.6816C18.9451 10.6816 20.9747 11.0018 23.0677 11.0018C26.7289 11.0018 30.491 11.1619 34.1956 11.1619C36.1383 11.1619 37.9612 10.9409 39.8085 10.5304C41.2515 10.2097 42.8894 10.0618 44.2116 9.40067" stroke="#102146" stroke-width="2" stroke-linecap="round" stroke-linejoin="round"/>
<path d="M35.2453 8.44C32.6034 8.44 29.9615 8.44 27.3197 8.44C26.3204 8.44 25.3212 8.44 24.322 8.44C23.2626 8.44 22.163 8.11977 21.0752 8.11977C19.3525 8.11977 17.6298 8.11977 15.9071 8.11977C13.6738 8.11977 10.8356 7.64406 8.82654 8.76023" stroke="#102146" stroke-width="2" stroke-linecap="round" stroke-linejoin="round"/>
<path d="M34.2845 9.72098C34.8902 9.26217 35.8518 8.62215 36.2415 7.95973C36.6986 7.18259 37.8011 6.90416 38.5187 6.44755C39.148 6.04705 39.7134 5.79589 40.2977 5.31786C41.1776 4.59796 42.3905 4.32495 43.2509 3.63667C43.8332 3.17083 45.1226 2.86401 45.8483 2.8361C46.2854 2.81929 46.6411 2.53969 47.0936 2.51587C47.3595 2.50188 48.0724 2.39909 48.2945 2.2757C48.903 1.93762 50.0384 2.23491 50.7051 2.04443C51.2736 1.88199 52.1675 2.01893 52.6976 2.19564" stroke="#102146" stroke-width="2" stroke-linecap="round" stroke-linejoin="round"/>
<path d="M52.5376 2.35571C51.2852 4.4096 49.3514 6.17452 48.4992 8.47561C47.8273 10.2897 47.2702 12.1258 46.4888 13.8839C46.1482 14.6503 45.4194 14.0993 45.3325 13.4035C45.2553 12.7862 45.0122 11.9829 45.0122 11.3221C45.0122 10.9476 44.5425 9.53028 44.5319 9.72094C44.4905 10.4656 44.5356 11.3295 44.8521 11.9625" stroke="#102146" stroke-width="2" stroke-linecap="round" stroke-linejoin="round"/>
<path d="M44.8521 11.9626C44.8521 14.7955 45.8127 17.3969 45.8127 20.2085C45.8127 21.6336 46.133 23.0665 46.133 24.5316C46.133 26.1053 46.4532 27.752 46.4532 29.335C46.4532 32.5335 46.6133 35.6397 46.6133 38.8261C46.6133 40.3904 46.7734 41.9553 46.7734 43.5406C46.7734 44.4969 46.9335 45.3919 46.9335 46.3515C46.9335 46.9583 46.8333 47.6276 47.0936 48.1483" stroke="#102146" stroke-width="2" stroke-linecap="round" stroke-linejoin="round"/>
<path d="M47.0936 48.1482C47.0936 52.612 46.6133 57.0025 46.6133 61.4376C46.6133 63.1746 46.4532 64.8504 46.4532 66.579C46.4532 69.071 46.3997 71.7653 46.124 74.2467C45.9167 76.1125 45.5915 77.9688 45.4925 79.8507C45.4002 81.6034 44.7573 83.3344 44.6919 85.0988C44.6542 86.1168 44.3093 87.5897 43.8558 88.4968C43.3173 89.5737 43.1163 90.8603 42.4503 91.8592" stroke="#102146" stroke-width="2" stroke-linecap="round" stroke-linejoin="round"/>
<path d="M42.4504 91.8591C42.1006 93.6519 40.8883 95.6233 39.8886 97.1785C39.4234 97.9021 39.3363 98.9049 38.7678 99.5446C38.4802 99.8681 38.4947 100.387 38.2163 100.745C37.9582 101.077 37.7522 101.458 37.6381 101.857C37.4613 102.476 36.7101 103.711 36.2771 104.268C35.8001 104.881 35.6916 105.792 35.2097 106.394C34.8202 106.881 34.6749 107.659 34.4091 108.191C33.9707 109.068 33.3233 109.963 33.0037 110.922C32.7588 111.656 32.2135 112.347 32.0519 113.074C31.8541 113.964 31.7184 114.881 31.5538 115.787C31.2347 117.542 30.9222 119.344 30.9222 121.16C30.9222 122.743 30.602 124.277 30.602 125.883C30.602 126.595 30.4419 127.292 30.4419 127.965C30.4419 128.618 30.5625 129.405 30.2817 129.966" stroke="#102146" stroke-width="2" stroke-linecap="round" stroke-linejoin="round"/>
<path d="M30.2818 129.806C30.2818 131.304 30.2818 132.801 30.2818 134.298C30.2818 135.92 29.8535 137.513 29.8014 139.128C29.7274 141.423 29.3211 143.675 29.3211 145.978C29.3211 150.201 29.0148 154.657 30.3618 158.698C30.6785 159.648 30.5724 160.762 30.8866 161.704C31.1794 162.582 31.363 163.492 31.5627 164.391C31.9406 166.091 32.9058 167.701 33.8843 169.114C34.8414 170.496 35.4182 171.523 36.7575 172.619C37.8198 173.488 39.2841 173.96 40.529 174.513C43.119 175.665 46.2854 175.061 48.8549 176.203C50.409 176.894 52.5482 178.993 51.6569 180.954C51.37 181.585 51.3063 182.327 50.9364 182.928C50.5663 183.53 50.4833 183.636 49.7267 183.773C48.2155 184.048 46.6101 184.164 45.1367 184.601C43.5536 185.07 41.8264 185.205 40.1732 185.205C37.7621 185.205 35.3607 185.526 32.9236 185.526C30.3087 185.526 27.6697 185.366 25.0781 185.366C24.1889 185.366 23.3477 185.205 22.4718 185.205C21.7281 185.205 20.8556 185.33 20.1235 185.197C18.7606 184.949 17.1726 184.725 15.7915 184.725C15.0573 184.725 13.0226 184.72 12.4736 184.28C12.2783 184.124 11.4183 184.136 11.1482 184.076C10.6377 183.962 10.1591 183.794 9.62712 183.764C8.90175 183.724 7.02123 183.537 6.46043 183.088C5.88968 182.632 4.73232 182.443 4.02315 182.128C3.19938 181.762 1.5151 181.163 1.14111 180.322C0.654806 179.228 1.81927 178.603 2.50207 177.92C2.90552 177.517 3.60043 177.101 4.18326 177.04C5.24805 176.928 6.34782 176.305 7.42112 176.079C8.77974 175.793 10.1944 175.615 11.5396 175.278C12.7285 174.981 13.7549 174.359 14.9465 173.962C16.4924 173.447 18.5205 172.763 19.4296 171.276C19.737 170.773 20.2804 170.442 20.5148 169.915C20.7776 169.323 21.0833 168.715 21.3955 168.153C21.9431 167.168 22.5177 165.905 22.7653 164.791C23.0676 163.431 23.7171 162.127 23.7171 160.708" stroke="#102146" stroke-width="2" stroke-linecap="round" stroke-linejoin="round"/>
<path d="M23.7171 160.708C23.7171 158.986 24.3628 157.357 24.6689 155.673C25.0971 153.318 25.1581 150.775 25.1581 148.379C25.1581 145.444 25.1581 142.508 25.1581 139.573C25.1581 135.798 24.7165 132.159 24.1174 128.445C23.8992 127.092 23.7695 125.77 23.4769 124.424C23.1312 122.834 23.226 121.182 22.881 119.594C22.61 118.348 22.2761 117.268 22.2761 115.956C22.2761 115.194 22.1552 113.927 21.8313 113.243C21.3695 112.268 21.2879 110.958 20.6394 110.148C20.4416 109.9 19.9738 109.379 19.8833 109.062C19.7912 108.74 19.394 107.859 19.394 108.671" stroke="#102146" stroke-width="2" stroke-linecap="round" stroke-linejoin="round"/>
<path d="M19.394 108.671C19.0286 107.768 18.4127 106.892 17.7128 106.27C16.9412 105.584 16.418 104.373 15.9516 103.476C14.7492 101.164 13.3515 98.9879 12.1889 96.6627C11.6753 95.6354 11.4153 94.4362 10.8191 93.4604C10.4376 92.8362 9.46698 91.7351 9.46698 90.9787C9.46698 90.0667 8.74619 88.7797 8.47072 87.892C8.3622 87.5424 8.10102 86.2128 7.86584 86.0952" stroke="#102146" stroke-width="2" stroke-linecap="round" stroke-linejoin="round"/>
<path d="M6.26467 9.40063C6.26467 10.9742 5.78985 12.3076 5.63312 13.8749C5.46167 15.5893 5.31738 17.4183 5.01935 19.132C4.609 21.4915 4.85849 23.9607 4.42337 26.3104C4.16427 27.7095 4.26311 29.1368 4.10314 30.5445C3.88049 32.5038 3.89376 34.6139 3.86297 36.5844C3.74776 43.9577 3.86297 51.3413 3.86297 58.7156C3.86297 61.5607 4.28592 64.4605 4.51232 67.2906C4.64621 68.9642 5.30399 70.6784 5.30399 72.3253" stroke="#102146" stroke-width="2" stroke-linecap="round" stroke-linejoin="round"/>
<path d="M5.30408 72.3254C5.30408 74.9515 5.66137 77.4893 6.46045 79.9753C7.207 82.2979 6.93932 84.9166 7.70578 87.216" stroke="#102146" stroke-width="2" stroke-linecap="round" stroke-linejoin="round"/>
<path d="M14.9109 101.306C20.1467 101.306 25.2067 100.665 30.4419 100.665C32.4645 100.665 34.432 100.505 36.4462 100.505C37.065 100.505 37.6138 101.786 36.6863 101.786C35.9232 101.786 35.4853 101.146 34.765 101.146C34.0271 101.146 33.359 101.201 32.6835 101.502C32.058 101.78 31.5366 102.281 30.8422 102.436C30.3997 102.534 29.9531 102.968 29.4812 103.103C28.8716 103.277 28.314 103.576 27.72 103.788C26.7915 104.119 25.3725 103.868 24.3932 103.868C23.2345 103.868 22.4241 103.66 21.351 103.263C20.7229 103.03 19.501 102.24 19.0738 101.706C18.5496 101.051 15.8952 101.466 15.071 101.466" stroke="#102146" stroke-width="2" stroke-linecap="round" stroke-linejoin="round"/>
<path d="M20.8351 110.272C20.9983 106.11 27.9907 103.038 30.691 106.51C31.3545 107.363 31.8829 108.424 31.8829 109.472C31.8829 109.799 32.5457 112.845 31.8829 112.514" stroke="#102146" stroke-width="2" stroke-linecap="round" stroke-linejoin="round"/>
<path d="M5.46411 18.6874C6.34173 18.4993 8.08294 17.7642 8.98661 18.2426C9.4788 18.5032 9.86726 19.3004 10.5522 19.3278C11.4281 19.3629 12.2693 19.2002 13.114 19.1677C13.9535 19.1354 14.7257 19.5186 15.5157 19.7726C16.1885 19.9888 16.9087 20.3762 17.5972 19.9683C18.0379 19.7071 19.1911 19.4511 19.7142 19.6836C20.1795 19.8904 20.972 20.4206 21.4755 20.4486C22.6588 20.5144 23.8739 20.4848 25.0335 20.2529C26.9325 19.8731 29.0407 19.9303 30.9222 20.1284C31.2882 20.1669 31.6036 20.4486 31.9629 20.4486C32.4237 20.4486 32.836 20.3208 33.2883 20.2885C34.1887 20.2242 34.9904 19.8082 35.9213 19.8082C37.6173 19.8082 39.3133 19.8082 41.0093 19.8082C41.4775 19.8082 42.6779 19.2739 43.0552 18.972C43.4043 18.6927 44.2359 18.8475 44.6919 18.8475" stroke="#102146" stroke-width="2" stroke-linecap="round" stroke-linejoin="round"/>
</svg>
