<svg width="85" height="173" viewBox="0 0 85 173" fill="none" xmlns="http://www.w3.org/2000/svg">
<path d="M11.0256 5.97192C10.4911 8.45145 9.09989 10.6006 8.22008 12.8743C7.19707 15.518 6.59454 18.6293 5.40063 21.2399C4.51239 23.1822 3.77563 26.205 3.77563 28.3356C3.77563 30.1621 2.52563 32.0315 2.52563 33.8022C2.52563 35.6126 1.62714 37.4528 1.52563 39.2689C1.41183 41.3049 1.27563 43.3312 1.27563 45.3568C1.27563 47.1252 1.02563 48.9857 1.02563 50.8234C1.02563 51.9427 1.52563 52.9346 1.52563 54.0537C1.52563 54.7353 1.78958 56.0107 2.08119 56.6628C2.3981 57.3715 2.72954 58.6173 2.77563 59.3962C2.82121 60.1663 3.47647 61.0014 3.52563 61.881C3.64075 63.9406 5.51553 66.3434 7.01175 67.7066C8.57448 69.1304 9.63213 71.2998 10.9145 72.9386C12.2479 74.6426 14.3805 76.6208 16.2756 77.7288C18.1127 78.8029 19.8338 80.2117 21.7756 81.0696C23.9806 82.0436 26.0377 82.9536 28.1506 84.1204C29.9417 85.1094 32.0293 85.5845 33.9006 85.9978C35.2425 86.2942 37.3385 86.606 38.0256 87.9719" stroke="#102146" stroke-width="2" stroke-linecap="round" stroke-linejoin="round"/>
<path d="M37.6255 87.9719C38.7288 89.6731 38.6842 90.8381 38.6842 92.9189C38.6842 94.6487 38.513 95.2352 37.5784 96.3269C36.9038 97.1149 35.9314 97.9328 35.9314 99.1027C35.9314 100.612 36.4569 101.807 36.7902 103.17C36.9091 103.656 37.202 104.403 37.202 104.915C37.202 105.446 37.2993 106.678 37.5196 107.142C38.1332 108.432 37.5625 110.348 38.1548 111.594C38.4721 112.261 38.0493 113.153 38.3666 113.82C38.6383 114.391 38.5454 115.625 38.6725 116.293C38.9592 117.801 38.4564 119.434 38.8489 120.924C39.2169 122.321 38.896 124.357 38.896 125.816C38.896 127.63 38.896 129.444 38.896 131.258C38.896 134.927 38.896 138.596 38.896 142.265C38.896 145.522 38.361 148.472 37.6372 151.431C37.061 153.787 36.8666 157.972 34.0256 157.972" stroke="#102146" stroke-width="2" stroke-linecap="round" stroke-linejoin="round"/>
<path d="M33.755 158.51C31.1728 158.998 28.7365 159.87 26.1764 160.42C24.5397 160.772 22.0306 160.854 20.6409 161.929C20.0009 162.425 15.6269 164.435 17.4798 165.829C19.082 167.034 20.3755 168.294 22.3251 168.967C24.0213 169.553 25.943 170.77 27.7915 170.77C29.2284 170.77 30.605 171.2 32.0709 171.251C33.2614 171.292 35.4155 171.217 36.4882 171.678C37.2614 172.011 38.7468 171.732 39.5942 171.732C41.0022 171.732 42.4103 171.732 43.8183 171.732C45.2641 171.732 46.8772 171.972 48.4013 171.972C50.1857 171.972 52.0111 171.732 53.7436 171.732C55.3464 171.732 57.1475 170.983 58.7407 170.717C60.6318 170.4 62.6073 169.7 64.5109 169.568C66.816 169.409 71.2405 168.321 72.2689 166.083C72.6466 165.26 73.4793 164.541 72.7106 163.612C72.2332 163.035 71.2542 162.395 70.5296 162.357C69.5355 162.303 68.7866 161.635 67.7963 161.635C66.6699 161.635 65.6557 161.395 64.5661 161.395C62.4126 161.395 59.7588 160.736 57.7468 160.18C56.2917 159.778 53.8363 158.537 53.3709 156.961C53.1947 156.365 52.589 155.325 52.1975 154.851C51.8508 154.432 50.9639 153.058 50.8999 152.501C50.8158 151.768 50.1742 150.56 49.8508 149.857C49.5527 149.208 49.9921 147.254 49.409 146.972" stroke="#102146" stroke-width="2" stroke-linecap="round" stroke-linejoin="round"/>
<path d="M49.354 146.972C49.354 141.043 49.354 135.114 49.354 129.185C49.354 125.948 49.354 122.712 49.354 119.475C49.354 117.96 49.7836 116.324 49.7836 114.8C49.7836 113.478 49.7 111.588 50.1654 110.374C50.6016 109.237 50.2169 107.301 50.416 106.031C50.5998 104.86 50.389 103.488 50.6905 102.352C51.19 100.47 51.2825 98.7187 49.891 97.4284C49.5092 97.0743 48.7361 95.7095 48.7096 95.1877C48.6878 94.7571 48.5699 94.199 48.3875 93.8184C48.131 93.2833 48.4058 92.6482 48.2681 92.0895C48.0642 91.2622 48.0653 90.4026 48.0653 89.4616C48.0653 89.0446 47.9498 88.3461 48.113 87.9678C48.3211 87.4853 48.7699 87.3301 48.9244 86.9719" stroke="#102146" stroke-width="2" stroke-linecap="round" stroke-linejoin="round"/>
<path d="M49.0256 86.9719C55.1814 86.9719 61.0895 82.113 65.6325 78.3331C66.2025 77.8587 66.812 77.5565 67.3834 77.0811C68.0917 76.4918 68.8119 75.7274 69.5174 75.203C70.4676 74.4969 71.1894 73.515 72.1576 72.8381C73.0033 72.2468 74.1372 71.3753 74.6336 70.4454C75.266 69.2606 76.0938 68.1958 76.9591 67.1902C77.8408 66.1654 78.2409 64.939 78.9563 63.7959C79.6769 62.6442 80.2081 61.4113 80.5978 60.1233C81.0187 58.732 80.9687 56.7956 81.6511 55.5465C82.3395 54.2864 81.9224 52.3393 82.3214 50.9697C82.8091 49.2959 82.9418 47.0942 83.0054 45.3496C83.1126 42.4046 82.7591 39.3703 82.7591 36.516C82.7591 35.7213 82.2836 34.1133 81.9657 33.386C81.6518 32.6675 81.2818 30.3462 81.2818 31.1323" stroke="#102146" stroke-width="2" stroke-linecap="round" stroke-linejoin="round"/>
<path d="M81.0256 30.9719C81.0256 28.2704 79.3719 25.9073 78.2756 23.4856C77.2267 21.1683 76.9425 18.5121 75.9701 16.2447C74.2152 12.1527 72.9575 7.76548 71.0256 3.97192" stroke="#102146" stroke-width="2" stroke-linecap="round" stroke-linejoin="round"/>
<path d="M10.2756 5.7497C13.0966 6.21026 15.6872 7.46766 18.5812 7.52748C21.254 7.58273 23.83 7.97192 26.4006 7.97192C32.805 7.97192 39.2823 7.7497 45.6367 7.7497C48.3895 7.7497 51.0762 7.52748 53.7895 7.52748C55.3321 7.52748 56.867 7.31631 58.3867 7.07069C59.239 6.93296 61.2163 6.903 61.8312 6.46575C62.373 6.08046 64.0564 6.30545 64.7756 6.02131C65.7161 5.64977 67.1248 5.77213 68.1367 5.51513C68.5723 5.40452 70.0256 4.98212 70.0256 4.52748C70.0256 3.4067 69.116 3.52748 68.0256 3.52748C65.9918 3.52748 64.0461 2.63859 62.0256 2.63859C59.4596 2.63859 56.9264 2.19415 54.2895 2.19415C47.6079 2.19415 40.9716 1.97192 34.2756 1.97192C29.4945 1.97192 24.7197 2.91416 19.9701 3.08303C18.0238 3.15224 16.0113 3.81427 14.1506 4.1818C12.9902 4.41102 10.0256 4.94413 10.0256 6.41637" stroke="#102146" stroke-width="2" stroke-linecap="round" stroke-linejoin="round"/>
<path d="M49.0256 86.9719C46.4659 87.684 44.1199 87.896 41.3775 87.896C40.5596 87.896 39.143 88.0916 38.396 87.8549C37.2383 87.4881 36.4048 87.1567 35.0256 87.1567" stroke="#102146" stroke-width="2" stroke-linecap="round" stroke-linejoin="round"/>
<path d="M2.02563 41.9719C4.76905 42.5043 6.81704 43.7236 9.70365 43.7236C11.0129 43.7236 12.3083 43.9425 13.6665 43.9425C14.3685 43.9425 14.9556 44.1615 15.6479 44.1615C16.413 44.1615 16.9554 44.5663 17.6293 44.5994C18.8339 44.6586 19.8496 45.0373 21.0968 45.0373C22.3903 45.0373 23.5886 44.8184 24.8671 44.8184C27.2895 44.8184 30.0453 44.8047 32.435 44.4291C33.7034 44.2298 36.2296 44.0839 37.4986 44.4291C39.5014 44.9739 41.7111 45.0054 43.6906 45.5239C45.2115 45.9223 47.0967 46.1826 48.6441 45.7429C53.528 44.3551 58.457 44.1615 63.5599 44.1615C67.7337 44.1615 71.9075 44.1615 76.0814 44.1615C77.0893 44.1615 78.3819 44.3524 79.3012 43.9912C80.2053 43.636 80.9825 43.5046 82.0256 43.5046" stroke="#102146" stroke-width="2" stroke-linecap="round" stroke-linejoin="round"/>
<path d="M73.0319 44.9719C73.0319 46.1644 72.6565 49.877 77.7263 48.7675C80.1782 48.231 81.0342 45.6721 78.4676 45.1666" stroke="#102146" stroke-width="2" stroke-linecap="round" stroke-linejoin="round"/>
<path d="M59.0319 44.9719C59.0319 46.1644 58.6565 49.877 63.7263 48.7675C66.1782 48.231 67.0342 45.6721 64.4676 45.1666" stroke="#102146" stroke-width="2" stroke-linecap="round" stroke-linejoin="round"/>
<path d="M2.02563 42.9719C2.02563 45.116 2.37975 47.3871 3.07301 49.4006C3.23217 49.8629 4.40438 51.862 5.19531 51.1463C6.01228 50.4071 6.57744 49.5335 7.67592 49.1512C9.22499 48.6121 8.66578 49.7861 9.5226 50.6475C10.3609 51.4904 11.9083 49.9548 12.9403 49.9548C14.302 49.9548 14.9322 51.4511 16.1651 51.4511C17.2611 51.4511 18.204 50.9523 19.3899 50.9523C20.343 50.9523 21.7989 52.3046 22.6147 51.8945C23.7721 51.3127 24.5076 51.2017 25.8395 51.2017C26.8318 51.2017 27.824 51.2017 28.8163 51.2017C30.617 51.2017 32.298 50.2042 34.0256 50.2042C35.9727 50.2042 37.5815 50.5086 38.9868 49.0958C39.7135 48.3652 40.907 44.7176 38.9868 44.7176" stroke="#102146" stroke-width="2" stroke-linecap="round" stroke-linejoin="round"/>
</svg>
