<svg width="99" height="225" viewBox="0 0 99 225" fill="none" xmlns="http://www.w3.org/2000/svg">
<path d="M1 64.2607C1.34952 66.1107 1.78979 67.9425 1.78979 69.8346C1.78979 71.2378 2.31631 72.3592 2.31631 73.7771C2.31631 74.9224 1.90222 77.2488 2.44795 78.2633C3.08321 79.4443 2.24231 81.2181 2.78434 82.4777C3.271 83.6086 2.84284 86.0002 2.84284 87.2208C2.84284 88.7881 3.36937 90.3877 3.36937 91.994C3.36937 93.5448 3.63263 94.9357 3.63263 96.4803C3.63263 97.2772 3.8678 97.9766 3.89589 98.731C3.91994 99.3767 3.69824 100.371 3.9544 100.967C4.63405 102.546 4.15916 104.926 4.15916 106.676C4.15916 108.312 4.68568 109.987 4.68568 111.631C4.68568 113.985 5.47547 116.273 5.47547 118.625C5.47547 121.279 5.77824 124.584 6.32376 127.189C6.86875 129.792 7.05505 132.821 7.05505 135.497C7.05505 138.902 7.50514 142.374 7.58157 145.769C7.59998 146.586 9.03886 159.152 8.89789 159.152" stroke="#102146" stroke-width="2" stroke-linecap="round" stroke-linejoin="round"/>
<path d="M9.10852 159.152C9.10852 163.213 8.43033 168.05 9.56662 171.927C9.89158 173.036 10.1067 174.764 10.1392 175.925C10.1749 177.196 10.5857 178.41 10.6546 179.712C10.7283 181.105 10.9858 182.888 11.3704 184.251C11.9168 186.187 11.8761 188.273 12.4011 190.202C12.9777 192.321 13.1156 195.107 13.2314 197.296C13.3395 199.338 12.9746 201.627 13.5464 203.578C14.2003 205.809 13.5757 208.457 14.4626 210.552C14.7114 211.139 14.7775 212.895 14.7775 213.527C14.7775 214.754 15.2314 215.883 15.2929 217.044C15.3777 218.647 15.9787 220.831 17.8697 220.831" stroke="#102146" stroke-width="2" stroke-linecap="round" stroke-linejoin="round"/>
<path d="M17.8696 221.012C18.7445 221.365 20.0856 221.705 20.8147 222.308C21.2368 222.656 22.3466 222.326 22.7976 222.699C23.0844 222.936 24.1183 223.151 24.4888 223.181C25.4239 223.258 26.306 223.723 27.259 223.723C30.1962 223.723 33.246 223.994 36.2401 223.994C42.6455 223.994 49.0509 223.994 55.4563 223.994C57.739 223.994 59.9562 223.537 62.163 223.452C63.8284 223.389 65.3968 223.252 67.0035 222.699C69.194 221.945 71.7338 221.643 73.7685 220.53C75.1576 219.77 75.5174 218.765 75.6055 217.217C75.6421 216.574 76.2777 215.624 76.4512 214.927C76.7271 213.819 76.8106 212.668 77.1218 211.583C77.6387 209.781 77.705 207.578 77.705 205.619C77.705 202.241 77.9675 198.863 77.9675 195.527" stroke="#102146" stroke-width="2" stroke-linecap="round" stroke-linejoin="round"/>
<path d="M77.9693 195.527C77.9693 189.795 77.8839 184.157 78.8476 178.51C79.2064 176.408 79.1693 173.979 79.2241 171.839C79.2642 170.272 79.336 167.712 79.8514 166.258C80.3318 164.902 80.2278 162.704 80.2278 161.281C80.2278 159.845 80.4788 158.438 80.4788 156.985C80.4788 150.882 81.7335 144.844 81.7335 138.743C81.7335 132.89 83.2391 127.012 83.2391 121.196" stroke="#102146" stroke-width="2" stroke-linecap="round" stroke-linejoin="round"/>
<path d="M83.2397 121.196C83.2397 116.666 83.2149 112.168 83.4886 107.659C83.5999 105.826 83.3552 103.625 83.8254 101.87C84.3753 99.8183 84.4942 97.6423 84.8211 95.5391C85.2942 92.4949 86.088 89.5659 86.3878 86.4794C86.8372 81.8525 87.9838 77.1207 87.9838 72.4753C87.9838 70.1498 88.5109 68.1217 88.5109 65.8425" stroke="#102146" stroke-width="2" stroke-linecap="round" stroke-linejoin="round"/>
<path d="M88.5109 65.5787C82.079 65.5787 75.8969 66.3694 69.3842 66.3694C60.0493 66.3694 50.6483 66.633 41.3639 66.633C37.6509 66.633 33.8743 66.8966 30.214 66.8966C28.4672 66.8966 26.7205 66.8966 24.9738 66.8966C23.5102 66.8966 22.1163 66.7644 20.6652 66.6184C20.0099 66.5525 18.6174 66.5259 18.0888 66.0473C17.5534 65.5625 14.8982 65.5787 14.1004 65.5787C12.7973 65.5787 11.418 65.571 10.1849 65.1833C8.42914 64.6313 6.11919 64.7879 4.27511 64.7879C3.59515 64.7879 1.27046 64.8049 1 64.2607" stroke="#102146" stroke-width="2" stroke-linecap="round" stroke-linejoin="round"/>
<path d="M2.05432 72.1685C8.68536 74.7881 16.496 74.2772 23.6652 74.2772C33.0547 74.2772 42.3937 74.5407 51.7855 74.5407C58.0241 74.5407 64.1923 74.8043 70.4021 74.8043C73.472 74.8043 76.8011 74.3148 79.79 73.7646C82.0879 73.3417 85.4753 73.7692 87.4565 72.432" stroke="#102146" stroke-width="2" stroke-linecap="round" stroke-linejoin="round"/>
<path d="M13.6521 208.768C18.015 210.586 22.4293 212.118 27.1854 212.118C33.1313 212.118 39.2352 212.397 45.2636 212.397C50.9495 212.397 56.4807 211.28 62.1366 211.28C64.6466 211.28 67.0596 210.035 69.5857 209.885C71.5753 209.767 74.153 208.563 75.8586 207.652" stroke="#102146" stroke-width="2" stroke-linecap="round" stroke-linejoin="round"/>
<path d="M11.7932 73.2717C11.7932 71.5327 11.6621 70.2987 11.069 68.7391C10.7779 67.9736 11.7675 67.9393 12.1843 67.9393C12.8317 67.9393 13.3265 67.2896 13.7341 66.8728C15.8997 64.6582 18.8496 62.9527 21.5701 61.4071C23.9967 60.0284 26.1826 60.5044 28.4791 61.7477C29.4168 62.2554 30.5748 63.4169 31.347 64.2066C32.3472 65.2294 33.7762 66.3025 34.4756 67.5542C34.7921 68.1205 36.2755 69.8017 35.6344 70.4574C35.3419 70.7565 34.7516 70.8063 34.4177 71.0795C33.6013 71.7474 32.7491 72.2096 31.9988 73.1384C30.7893 74.6356 29.6471 76.1778 28.4791 77.6709C27.6347 78.7504 26.1758 79.3563 25.3505 80.4112C23.0688 83.3279 19.2949 80.4383 17.1379 78.7226C15.976 77.7984 14.6176 76.6997 13.7341 75.538C13.1285 74.7417 12.4207 73.4592 11.5325 73.0051" stroke="#102146" stroke-width="2" stroke-linecap="round" stroke-linejoin="round"/>
<path d="M11.0162 93.2556C14.4073 91.4839 17.9226 89.5686 21.7932 89.5686C24.1777 89.5686 26.5113 89.5127 28.8448 89.868C30.5951 90.1345 37.9007 93.2372 38.9565 90.9867" stroke="#102146" stroke-width="2" stroke-linecap="round" stroke-linejoin="round"/>
<path d="M46.8641 102.217C49.3231 102.162 51.6619 101.225 54.0908 101.225C56.4997 101.225 58.9086 101.225 61.3175 101.225C65.0952 101.225 68.1625 98.9554 71.6413 98" stroke="#102146" stroke-width="2" stroke-linecap="round" stroke-linejoin="round"/>
<path d="M52.6631 85.3478C55.1211 84.8119 57.3364 84.6449 59.8103 84.6449C62.1363 84.6449 64.6281 85.0217 66.8968 84.2935" stroke="#102146" stroke-width="2" stroke-linecap="round" stroke-linejoin="round"/>
<path d="M44.2257 73.7499C44.2257 69.9582 43.701 66.2039 43.701 62.3718C43.701 57.9137 45.5494 53.5167 48.1604 49.9898C50.0207 47.4768 51.8697 45.8163 54.3247 44.0422C56.7002 42.3256 60.2939 41.4697 63.054 40.6196C66.9849 39.4089 70.4112 38.4292 74.5229 38.4292C78.6565 38.4292 82.3529 41.0451 85.9335 42.8101C87.6256 43.6441 89.1808 44.3274 90.5095 45.8067C91.6458 47.0719 93.6354 48.1665 94.3276 49.792C95.5431 52.6467 98 56.0179 98 59.2383" stroke="#102146" stroke-width="2" stroke-linecap="round" stroke-linejoin="round"/>
<path d="M98 58.9893C95.9903 59.1326 94.3409 60.3764 92.5828 61.3168C91.3425 61.9803 90.0214 62.47 88.7936 63.1512C85.153 65.1708 81.4568 67.049 77.8151 69.0857C76.5967 69.7671 75.2012 70.073 74.0835 70.92C72.9576 71.7733 71.2557 72.6993 69.9341 73.1397C68.5702 73.5943 67.0464 74.1604 65.8424 74.8045" stroke="#102146" stroke-width="2" stroke-linecap="round" stroke-linejoin="round"/>
<path d="M49.539 73.7499C49.539 70.5611 49.3001 67.2843 50.0046 64.1774C50.7767 60.7722 51.6581 57.5934 53.1469 54.4834C54.608 51.4313 56.3052 49.3545 59.2278 47.8282C62.4113 46.1657 66.0186 44.759 69.6439 44.759C71.1048 44.759 72.4729 44.7031 73.8918 45.0325C75.5482 45.4169 77.0034 46.282 78.6052 46.7342C80.0032 47.1289 81.1496 48.2229 82.5477 48.5879C83.898 48.9405 85.6262 49.6984 86.781 50.5024C88.0527 51.388 89.3433 52.3224 90.5052 53.3742C91.1921 53.996 92.195 54.8932 93.0074 55.3647C94.5396 56.2537 94.716 57.9005 95.3641 59.2544" stroke="#102146" stroke-width="2" stroke-linecap="round" stroke-linejoin="round"/>
<path d="M64.8532 48.9729C64.8532 51.1006 64.5588 53.4899 65.2219 55.5058C65.7078 56.9827 66.5542 59.3707 66.64 60.9222C66.6863 61.76 68.835 66.6796 68.4267 66.8968" stroke="#102146" stroke-width="2" stroke-linecap="round" stroke-linejoin="round"/>
<path d="M79.0218 49.5C79.0218 51.1464 79.0218 52.7928 79.0218 54.4393C79.0218 56.0557 78.4576 57.531 78.1724 59.1041C78.077 59.6305 77.2767 62.8606 76.9131 62.6714" stroke="#102146" stroke-width="2" stroke-linecap="round" stroke-linejoin="round"/>
<path d="M56.8804 61.0979C58.5439 61.9936 59.5666 63.4705 61.1009 64.4147C61.5382 64.6838 63.1825 66.5849 62.5268 66.3495" stroke="#102146" stroke-width="2" stroke-linecap="round" stroke-linejoin="round"/>
<path d="M38.4293 74.2773C38.4293 68.4328 42.112 64.268 43.7011 58.9893" stroke="#102146" stroke-width="2" stroke-linecap="round" stroke-linejoin="round"/>
<path d="M49.5 48.4457C49.9188 44.0451 53.1893 40.0372 55.0825 36.1874C57.2057 31.8698 59.7042 27.8014 61.8991 23.5372C62.741 21.9017 63.5572 20.2942 64.2383 18.5766C64.9196 16.8587 66.0138 15.3871 66.6923 13.6763C67.5368 11.5469 68.8145 9.66665 69.6486 7.5246C69.8669 6.96401 72.1252 0.702883 72.7484 1.011C73.3463 1.30665 73.7271 1.85316 74.0399 2.42831C74.1913 2.70665 75.0474 2.97266 75.3315 3.12189" stroke="#102146" stroke-width="2" stroke-linecap="round" stroke-linejoin="round"/>
<path d="M75.3315 3.10864C75.3315 7.66804 71.6364 11.1244 70.0681 15.2139C68.606 19.0267 66.401 22.792 65.075 26.5484C64.1775 29.0911 63.0374 32.1603 61.5614 34.3918C60.6875 35.713 60.5066 37.4969 59.456 38.7443C58.9469 39.3489 58.7407 40.3063 58.2327 40.9809C57.9567 41.3474 57.6477 43.0629 57.4076 42.5527" stroke="#102146" stroke-width="2" stroke-linecap="round" stroke-linejoin="round"/>
</svg>
