<svg width="111" height="246" viewBox="0 0 111 246" fill="none" xmlns="http://www.w3.org/2000/svg">
<path d="M21.2681 77.2691C19.7141 77.2691 18.1602 77.2691 16.6063 77.2691C15.6542 77.2691 13.8247 76.9147 13.0692 77.5947C12.4582 78.1446 11.2231 78.8982 11.9444 79.7998C12.64 80.6693 13.4009 81.2227 13.9424 82.1973C14.8714 83.8695 15.9403 86.7046 15.9403 88.5907C15.9403 89.8765 16.7395 91.1659 16.7395 92.4533C16.7395 93.6324 16.9446 94.8746 17.0058 95.9164C17.1509 98.3827 17.0058 100.904 17.0058 103.375C17.0058 104.585 16.4731 105.559 16.4731 106.705C16.4731 107.302 15.9403 107.768 15.9403 108.304C15.9403 108.718 15.7444 109.802 15.5407 110.168C15.0557 111.041 15.2853 112.252 14.6675 113.025C14.4077 113.349 14.4196 114.281 14.3271 114.697C14.1826 115.347 13.8146 115.95 13.5428 116.562C12.7223 118.408 12.0345 120.244 11.1453 122.023" stroke="#102146" stroke-width="2" stroke-linecap="round" stroke-linejoin="round"/>
<path d="M11.1452 122.022C10.4741 125.005 8.64754 127.655 8.48131 130.813C8.39513 132.451 7.47987 134 7.41575 135.668C7.37524 136.721 7.4477 138.24 7.01617 139.19C6.62885 140.042 6.91052 141.163 6.55738 142.002C5.94472 143.457 5.63477 145.738 5.55102 147.33C5.46534 148.958 5.01824 150.454 5.01824 152.125C5.01824 153.702 4.58061 155.302 4.48546 156.92C4.40416 158.302 4.41416 160.514 4.01188 161.922C3.65187 163.182 3.68629 165.488 3.68629 166.776C3.68629 168.655 3.4199 170.569 3.4199 172.37C3.4199 176.169 3.15351 180.197 3.15351 184.091C3.15351 185.922 2.9417 187.905 3.3607 189.686C3.54363 190.463 3.16064 191.51 3.55309 192.216C3.87707 192.799 3.95268 194.305 3.95268 195.013C3.95268 196.632 4.93079 198.234 5.01824 199.808C5.09268 201.148 4.97306 202.915 5.55102 204.071" stroke="#102146" stroke-width="2" stroke-linecap="round" stroke-linejoin="round"/>
<path d="M5.55103 204.071C5.97977 206.268 6.57576 208.707 7.47495 210.731C8.23338 212.437 8.33722 214.802 9.48768 216.384C9.85589 216.89 10.1549 218.786 10.3313 219.403C10.5844 220.289 10.5758 221.37 10.938 222.185C11.2927 222.983 11.678 224.378 11.678 225.249C11.678 226.325 12.4197 227.278 12.4772 228.312C12.5746 230.066 14.2927 232.113 15.3483 233.433C16.4227 234.776 17.2348 236.385 18.5449 237.695C19.471 238.621 20.3185 240.925 21.8008 241.099C22.6368 241.197 23.342 241.898 24.3315 241.898C25.35 241.898 26.3316 242.431 27.395 242.431" stroke="#102146" stroke-width="2" stroke-linecap="round" stroke-linejoin="round"/>
<path d="M27.395 242.431C30.8789 243.111 34.5616 243.558 38.0506 243.763C41.6769 243.976 45.166 244.296 48.8394 244.296C52.4786 244.296 56.0715 243.763 59.6282 243.763C61.3691 243.763 63.1529 243.853 64.8228 243.482C65.9683 243.227 69.2559 243.516 70.0175 242.564C70.3856 242.104 71.4845 242.323 71.9414 241.957C72.4243 241.571 73.8741 241.514 74.5461 241.158C75.5356 240.634 77.4508 239.549 77.728 238.302C77.8053 237.954 77.4532 237.763 77.4764 237.37C77.498 237.002 78.2163 237.017 78.4827 236.778C79.2996 236.042 79.9268 235.229 80.6731 234.439C81.8847 233.156 82.7021 231.491 83.8697 230.177C86.5152 227.201 86.4261 222.965 88.2652 219.655C89.2916 217.807 89.8009 215.462 90.4703 213.454C91.0513 211.711 91.8615 209.823 91.8615 208.067" stroke="#102146" stroke-width="2" stroke-linecap="round" stroke-linejoin="round"/>
<path d="M91.8615 208.067C91.8615 206.288 92.3 204.702 92.3942 203.005C92.4582 201.855 93.1934 200.701 93.1934 199.542C93.1934 198.349 93.4598 197.216 93.4598 196.079C93.4598 195.113 93.3985 193.486 93.7854 192.616C94.2441 191.584 94.259 189.971 94.259 188.827C94.259 188.053 94.1834 187.241 94.3922 186.489C94.5971 185.751 94.2838 184.768 94.5846 184.092C95.0791 182.979 95.3245 180.792 95.3245 179.563C95.3245 178.013 95.5909 176.557 95.5909 175.034C95.5909 173.827 95.3245 172.566 95.3245 171.438C95.3245 170.136 94.5254 168.78 94.5254 167.442C94.5254 165.954 93.9926 164.514 93.9926 162.928C93.9926 161.633 93.7262 160.413 93.7262 159.169C93.7262 157.669 93.4598 156.207 93.4598 154.655C93.4598 153.248 93.8047 151.332 93.3266 149.994C92.964 148.978 92.3942 147.445 92.3942 146.383C92.3942 145.775 92.3442 142.776 91.8615 142.535" stroke="#102146" stroke-width="2" stroke-linecap="round" stroke-linejoin="round"/>
<path d="M91.8615 142.535C91.8615 141.486 92.0919 140.09 91.7283 139.072C91.429 138.234 91.1117 137.297 91.0623 136.408C90.9942 135.181 90.635 133.375 90.1299 132.264C89.3758 130.605 89.1769 127.881 88.946 126.033C88.7373 124.364 87.9934 122.677 87.8656 121.016C87.6862 118.683 86.1032 116.321 85.4829 114.149C84.9197 112.178 83.9416 110.199 82.4046 108.97C81.8792 108.549 82.2714 106.014 82.2714 105.358C82.2714 103.74 82.2714 102.122 82.2714 100.504C82.2714 98.9521 82.4794 97.4937 82.5378 95.9756C82.5749 95.0107 82.8964 92.5441 83.485 91.7874C84.8071 90.0874 84.6347 87.2162 86.2081 85.468C87.313 84.2403 88.4656 82.196 89.1976 80.7322" stroke="#102146" stroke-width="2" stroke-linecap="round" stroke-linejoin="round"/>
<path d="M88.9312 80.732C76.3004 80.732 63.5377 80.4656 50.8374 80.4656" stroke="#102146" stroke-width="2" stroke-linecap="round" stroke-linejoin="round"/>
<path d="M50.8373 80.4657C44.7215 80.4657 38.6726 80.1993 32.5896 80.1993C30.3608 80.1993 28.0909 79.9329 25.7967 79.9329C25.2178 79.9329 23.1636 80.0387 22.8664 79.5186C22.4176 78.7332 21.9184 78.037 21.5344 77.269" stroke="#102146" stroke-width="2" stroke-linecap="round" stroke-linejoin="round"/>
<path d="M5.01819 192.35C5.36228 190.476 6.52615 189.059 6.94212 187.229C7.32373 185.55 8.46538 183.575 9.68002 182.36C10.5746 181.465 11.2388 180.193 11.9591 179.148C12.779 177.96 13.8217 176.992 14.6674 175.833C16.5941 173.193 18.4944 170.592 20.4688 167.99C26.1389 160.515 31.8591 152.827 38.7166 146.412C41.4449 143.86 44.2337 141.354 46.9007 138.746C49.2055 136.492 51.6713 133.397 54.4484 131.731C56.8238 130.306 58.893 127.782 61.0785 126.033C63.3045 124.252 65.2954 122.409 67.2943 120.365C68.6767 118.951 70.0665 117.613 71.3494 116.147C72.7623 114.532 73.9099 112.695 75.3452 111.1C78.2151 107.912 79.9248 103.54 81.7386 99.9121" stroke="#102146" stroke-width="2" stroke-linecap="round" stroke-linejoin="round"/>
<path d="M4.48547 163.313C5.08795 159.899 7.77795 158 9.94647 155.454C11.1784 154.008 12.1147 152.348 13.4095 150.941C14.6783 149.562 15.9695 148.284 17.139 146.812C19.2947 144.097 21.9384 141.775 24.0504 139.071C26.1787 136.347 28.9689 134.353 31.1393 131.731C34.7865 127.324 38.9432 123.297 42.5201 118.826C43.5972 117.479 44.52 115.75 45.776 114.564C46.526 113.855 47.5741 112.899 47.9071 111.9" stroke="#102146" stroke-width="2" stroke-linecap="round" stroke-linejoin="round"/>
<path d="M7.14941 137.74C8.0451 134.997 10.4092 132.688 12.5956 130.813C14.7579 128.96 16.5687 126.306 18.3378 124.094C20.6183 121.244 22.5427 118.158 24.3316 114.993C25.2857 113.305 26.2878 110.876 27.6615 109.502" stroke="#102146" stroke-width="2" stroke-linecap="round" stroke-linejoin="round"/>
<path d="M8.48132 212.595C8.48132 209.835 9.25985 207.691 10.7752 205.373C11.6383 204.053 12.7553 202.894 13.7499 201.673C14.9193 200.238 15.7747 198.577 16.9466 197.145C21.8582 191.142 26.6911 185.202 32.4564 179.977C35.1134 177.569 38.2719 175.712 41.0401 173.436C43.2045 171.656 45.6728 170.273 47.9071 168.582C49.9597 167.028 52.3356 165.69 54.3004 164.083C56.9339 161.928 58.9649 159.088 61.6262 156.92C64.6304 154.472 67.363 151.545 70.2247 148.928C73.6531 145.792 75.7929 141.536 78.9415 138.154C80.3358 136.656 81.4818 135.169 82.2122 133.27C82.7892 131.77 83.0518 129.822 83.8698 128.475C84.7478 127.029 84.2128 124.751 84.6541 123.207C84.9644 122.121 84.6901 120.459 84.6689 119.359C84.6567 118.722 84.6077 115.332 84.1361 115.096" stroke="#102146" stroke-width="2" stroke-linecap="round" stroke-linejoin="round"/>
<path d="M17.5386 235.238C17.5386 231.681 19.4794 228.872 21.1496 225.826C22.867 222.694 24.5128 219.468 26.803 216.709C28.8439 214.251 30.9012 211.875 32.9892 209.458C34.148 208.116 35.8274 207.253 36.9851 205.876C37.8277 204.874 38.6156 203.802 39.5306 202.887C40.8205 201.597 43.518 200.752 45.258 200.208C47.2015 199.601 49.389 199.242 51.3849 198.743C56.5723 197.446 60.4198 191.993 63.3577 187.88C65.0488 185.513 66.5699 182.948 68.4191 180.688C70.5174 178.123 72.6096 175.54 74.6053 172.903C76.6468 170.205 79.0081 167.857 81.3538 165.444C83.2672 163.476 85.4539 161.865 87.1996 159.732C88.2644 158.43 88.2044 156.739 88.4132 155.173C88.696 153.052 89.3019 150.868 89.8783 148.81C90.7244 145.788 91.3287 142.127 91.3287 139.072" stroke="#102146" stroke-width="2" stroke-linecap="round" stroke-linejoin="round"/>
<path d="M32.4564 241.632C33.0774 238.899 35.2676 236.897 36.9259 234.706C38.3554 232.817 40.8995 231.219 42.8012 229.792C44.2333 228.718 45.5051 227.598 46.9747 226.581C48.7098 225.379 50.716 224.667 52.4357 223.458C56.568 220.554 58.4521 216.081 61.493 212.196C64.2092 208.725 67.1596 205.537 70.7574 203.005C72.2456 201.958 73.2125 200.144 74.8125 199.276C76.0404 198.609 77.8121 197.748 78.6751 196.597C79.6593 195.285 80.9303 194.108 82.0198 192.882C83.5705 191.138 84.735 189.44 86.0601 187.555C87.3134 185.771 88.5247 183.886 89.5231 181.96C90.3813 180.305 91.5726 178.837 92.1278 177.032C92.5057 175.804 92.905 174.534 93.1786 173.303C93.314 172.693 93.1601 171.055 93.7262 170.772" stroke="#102146" stroke-width="2" stroke-linecap="round" stroke-linejoin="round"/>
<path d="M58.0299 241.099C59.6899 237.846 62.5671 235.661 65.3556 233.492C68.7703 230.836 71.4828 227.472 74.4129 224.317C77.8742 220.589 81.5218 216.713 84.6097 212.595C86.1402 210.555 87.7233 208.581 89.3308 206.616C89.9161 205.901 91.3287 204.487 91.3287 203.538" stroke="#102146" stroke-width="2" stroke-linecap="round" stroke-linejoin="round"/>
<path d="M16.7394 110.568C16.7394 114.544 16.7394 118.52 16.7394 122.496C16.7394 124.967 16.9631 127.77 17.6865 130.148C18.5712 133.054 20.0583 135.733 21.1496 138.539C22.4383 141.853 24.3997 145.84 26.8622 148.395C28.6516 150.252 30.2344 152.3 32.0568 154.123C34.4315 156.497 37.138 158.438 39.5305 160.797C45.2585 166.446 51.5113 171.487 56.4463 177.861C59.645 181.993 63.2741 185.728 66.288 190.011C67.472 191.694 69.3824 192.315 70.9498 193.534C71.9688 194.326 73.1341 195.147 74.2797 195.754C74.9727 196.12 75.7233 196.339 76.2036 196.819C77.8782 198.494 79.5059 200.269 81.191 201.955C82.0491 202.813 82.6049 203.925 83.3961 204.811C83.933 205.412 84.6529 206.19 85.0685 206.883C85.9506 208.353 87.6681 210.019 87.8656 211.796C87.9423 212.487 88.3474 214.701 88.9311 214.993" stroke="#102146" stroke-width="2" stroke-linecap="round" stroke-linejoin="round"/>
<path d="M29.5261 111.9C29.5261 115.151 31.4553 117.365 32.7228 120.217C34.3277 123.828 36.3106 126.664 38.6426 129.807C43.3055 136.092 49.4929 141.042 55.0404 146.471C59.9 151.227 65.0541 155.548 69.7806 160.471C74.9734 165.881 81.7258 170.66 86.0009 176.899C87.7055 179.387 89.6116 181.711 91.3287 184.151C92.1236 185.28 93.4598 186.97 93.4598 188.354" stroke="#102146" stroke-width="2" stroke-linecap="round" stroke-linejoin="round"/>
<path d="M51.3701 111.633C54.014 113.673 56.3923 116.265 58.8142 118.559C61.621 121.219 64.8014 123.769 67.3535 126.67C69.0511 128.599 70.8839 130.564 72.6813 132.412C74.4462 134.226 75.6623 136.512 77.4172 138.332C79.0914 140.068 80.0871 142.558 81.7238 144.399C83.3538 146.233 85.1786 148.231 86.4004 150.393C88.1042 153.407 91.2921 155.745 92.3942 159.051" stroke="#102146" stroke-width="2" stroke-linecap="round" stroke-linejoin="round"/>
<path d="M9.01411 134.277C9.01411 137.064 8.82593 139.814 9.4877 142.535C10.1424 145.226 10.6016 147.895 11.4116 150.556C12.4169 153.859 13.4208 157.176 14.2235 160.501C14.7685 162.759 15.8963 165.525 17.065 167.516C18.2173 169.479 19.9579 170.912 21.5345 172.489C22.8141 173.768 24.0551 175.136 25.2639 176.485C26.4424 177.799 28.0344 178.681 29.2598 179.963C31.3638 182.162 33.195 184.745 35.4903 186.741C36.9387 188 37.7783 189.917 39.057 191.343C41.1942 193.727 43.3882 197.046 46.1756 198.743C48.1133 199.923 50.0581 200.866 51.7845 202.354C54.6722 204.843 58.0048 206.697 60.901 209.132C64.2441 211.943 66.9111 215.177 68.4191 219.27C69.3152 221.702 69.3764 224.276 71.453 226.033C72.4184 226.85 73.3252 226.714 74.5461 226.714" stroke="#102146" stroke-width="2" stroke-linecap="round" stroke-linejoin="round"/>
<path d="M74.546 226.714C76.278 226.756 77.2584 228.186 78.0683 229.644C78.7102 230.8 80.1402 231.97 80.1402 233.374" stroke="#102146" stroke-width="2" stroke-linecap="round" stroke-linejoin="round"/>
<path d="M4.48546 166.51C4.48546 168.041 4.2985 169.698 4.75185 171.172C5.6243 174.007 6.90605 176.768 7.94853 179.548C9.12792 182.693 10.1916 186.113 12.0776 188.901C13.708 191.312 15.1047 194.579 17.3906 196.449C19.6372 198.287 22.6106 199.316 24.7163 201.422C26.1023 202.808 27.4548 204.807 28.4606 206.483C29.8539 208.805 31.3455 211.15 32.5896 213.542C34.2221 216.682 37.1257 219.129 39.5898 221.593C41.1029 223.106 42.7935 224.183 44.7104 225.116C46.8918 226.177 48.6947 227.745 50.8374 228.845C52.2726 229.582 53.7893 230.355 55.0996 231.302C57.2455 232.852 58.2123 234.678 59.8946 236.57C60.3239 237.053 62.0195 240.037 61.493 240.3" stroke="#102146" stroke-width="2" stroke-linecap="round" stroke-linejoin="round"/>
<path d="M5.81738 201.94C6.13857 203.439 6.76697 204.609 7.74131 205.788C8.65443 206.892 10.1833 207.915 10.8788 209.132C12.0832 211.24 13.6171 213.384 15.0078 215.392C17.4695 218.948 19.5018 224.559 23.8727 226.24C25.0486 226.693 25.6524 227.871 26.5958 228.52C27.2144 228.945 27.7183 230.301 28.1942 230.917C28.8084 231.712 29.868 232.474 30.3105 233.359C30.8737 234.485 32.0184 235.247 32.4564 236.452C32.9135 237.709 33.7494 238.624 34.3211 239.767" stroke="#102146" stroke-width="2" stroke-linecap="round" stroke-linejoin="round"/>
<path d="M40.9809 84.9944C39.8876 84.9944 37.6052 84.6899 36.7187 85.5272C36.0718 86.1381 34.7051 86.9255 34.5876 87.9247C34.5217 88.4846 34.1745 89.0453 33.9956 89.5823C33.6879 90.5053 33.7376 91.501 33.4628 92.3942C33.1014 93.5688 33.2794 94.6248 33.5368 95.7832C34.7541 101.261 42.4413 103.349 46.7083 100.031C49.7317 97.6791 52.1909 95.6014 53.7676 92.0538C54.2762 90.9096 54.6176 89.1857 54.1672 87.9247C53.8725 87.0994 52.5804 85.7936 51.6365 85.7936C49.4275 85.7936 47.2562 86.06 45.11 86.06C44.2436 86.06 42.849 86.3291 42.1797 85.7936C41.3601 85.1379 41.4449 84.5904 42.0465 85.7936" stroke="#102146" stroke-width="2" stroke-linecap="round" stroke-linejoin="round"/>
<path d="M42.0465 85.7936C42.0465 83.0513 42.237 80.3399 41.5729 77.6835C41.0557 75.6146 40.5664 73.6534 39.797 71.6749C38.1784 67.5128 36.5687 63.2119 34.6468 59.1545C34.0062 57.8022 33.193 56.4758 32.6636 55.0995C32.4031 54.4221 31.2835 52.6753 30.7249 52.2284C30.0456 51.685 29.6307 50.9249 28.8602 50.4968C28.2666 50.1671 26.3295 49.5998 26.3295 50.63" stroke="#102146" stroke-width="2" stroke-linecap="round" stroke-linejoin="round"/>
<path d="M21.5345 78.0681C21.5345 73.8352 18.867 70.725 17.5386 66.8797C16.0932 62.6956 14.2954 58.6216 12.6252 54.5221C11.4705 51.6878 9.95628 49.1422 9.28051 46.1012C8.44584 42.3452 7.45905 38.5629 6.08383 34.972C4.77641 31.5582 4.39636 27.8822 3.15354 24.4644C2.72738 23.2925 2.47705 22.0911 1.95478 20.9422C1.74026 20.4702 1.16206 19.7512 1.03721 19.3142C0.844744 18.6406 1.42941 18.9294 2.08797 18.9294C2.81518 18.9294 3.42911 18.6886 4.0859 18.3966C4.72798 18.1113 7.4927 17.2364 7.14939 17.0647" stroke="#102146" stroke-width="2" stroke-linecap="round" stroke-linejoin="round"/>
<path d="M7.14941 17.0647C7.72407 20.0098 9.53324 22.8734 10.8197 25.5892C11.5855 27.206 12.251 28.9265 12.7436 30.6506C13.0946 31.879 13.9727 32.9828 14.4011 34.1729C15.7209 37.8388 16.5051 41.6391 17.7458 45.3613C18.2736 46.9445 18.9452 48.4934 19.4034 50.0971C19.5809 50.7185 19.9572 51.3832 20.2617 51.9618C20.8461 53.0721 20.9015 54.2334 21.2681 55.4249C21.9508 57.6438 22.2619 59.9919 23.192 62.0846C23.926 63.7361 25.0452 66.0858 25.264 67.9452C25.3555 68.7231 26.1104 70.2188 26.4627 70.9939C26.9173 71.9941 27.0303 73.0652 27.4543 74.0722C27.813 74.9241 28.4606 76.2619 28.4606 77.1357C28.4606 77.9438 29.2598 78.8262 29.2598 79.6664" stroke="#102146" stroke-width="2" stroke-linecap="round" stroke-linejoin="round"/>
<path d="M17.5386 65.0152C19.3783 64.9703 21.2605 64.4975 22.0672 62.884" stroke="#102146" stroke-width="2" stroke-linecap="round" stroke-linejoin="round"/>
<path d="M8.74768 42.6382C10.1516 42.6382 11.7932 43.2231 13.0099 42.579C13.7034 42.2118 15.141 41.7137 15.141 40.7734" stroke="#102146" stroke-width="2" stroke-linecap="round" stroke-linejoin="round"/>
<path d="M24.4647 64.4823C24.4647 44.7497 24.4647 25.0171 24.4647 5.28449C24.4647 4.12881 24.8673 2.05079 24.1392 1.14064C23.7183 0.614535 24.6666 1.72243 24.8643 1.88061C25.2438 2.18416 25.0177 3.17541 25.3971 3.47896C26.7854 4.58958 28.3233 6.66745 29.1266 8.27398C30.6813 11.3834 32.7234 14.1359 34.0548 17.3904C36.8004 24.102 37.8485 31.2416 40.0338 38.1097C41.3549 42.2617 41.3943 46.7591 42.1797 51C42.4442 52.4283 42.2996 54.0801 42.9049 55.425C43.2237 56.1336 43.3497 57.3726 43.3784 58.1482C43.4995 61.4152 44.9768 64.5615 44.9768 67.8862C44.9768 69.557 44.83 71.1443 45.6428 72.6072C46.1798 73.574 46.5751 75.5138 46.5751 76.6031C46.5751 77.3718 47.2608 79.3434 47.9071 79.6666" stroke="#102146" stroke-width="2" stroke-linecap="round" stroke-linejoin="round"/>
<path d="M48.0256 79.3848C50.4004 78.5602 52.8307 78.5624 55.2366 77.727" stroke="#102146" stroke-width="2" stroke-linecap="round" stroke-linejoin="round"/>
<path d="M55.366 77.5355C58.4978 73.44 61.8139 69.4478 64.8228 65.2816C66.5741 62.8568 68.2488 60.4294 70.417 58.3554C72.966 55.9173 74.6305 52.6767 77.1508 50.1565C79.0187 48.2886 80.4169 46.355 82.005 44.3699C82.4759 43.7813 83.3822 43.2937 84.1361 43.186C84.9273 43.0729 87.3328 43.1712 86.5336 43.1712" stroke="#102146" stroke-width="2" stroke-linecap="round" stroke-linejoin="round"/>
<path d="M86.5337 43.1711C87.4143 44.8645 88.2098 45.7032 89.5972 46.7822C90.5169 47.4976 92.2125 47.7389 92.9271 48.6321C94.3549 50.4169 96.2626 52.0521 97.3965 54.0931C98.5653 56.1969 98.5213 57.9994 98.5213 60.3533C98.5213 60.9863 99.6351 61.6715 100.06 62.144C100.615 62.7598 101.626 64.4584 101.718 65.2815C101.801 66.032 102.605 67.2564 103.05 67.8122C103.838 68.7975 104.382 70.356 104.382 71.6749C104.382 73.658 105.774 75.7395 106.572 77.5355C107.05 78.6098 106.817 79.5038 107.061 80.599C107.306 81.7024 107.803 82.7751 108.378 83.7809C109.352 85.4855 109.976 87.2982 109.976 89.2567" stroke="#102146" stroke-width="2" stroke-linecap="round" stroke-linejoin="round"/>
<path d="M109.976 89.2566C107.193 89.2566 104.06 90.2548 101.451 91.2693C98.6639 92.3534 95.7114 92.9304 92.8678 93.8444C90.8399 94.4962 88.2294 94.767 86.4004 95.7832C85.2229 96.4373 82.9261 96.2051 82.2714 97.5147" stroke="#102146" stroke-width="2" stroke-linecap="round" stroke-linejoin="round"/>
<path d="M19.5546 106.294C21.123 103.331 24.3414 101.908 27.6776 102.591C30.4836 103.165 32.3938 106.412 34.9346 107.578C36.1341 108.129 37.2757 108.982 38.6378 108.982C40.0278 108.982 41.138 108.106 42.4007 107.638C45.8427 106.363 49.01 104.638 52.5993 103.741C58.0923 102.367 62.2232 106.513 67.1133 108.041C71.4789 109.405 75.5858 104.968 77.3418 101.456" stroke="#102146" stroke-width="2" stroke-linecap="round" stroke-linejoin="round"/>
<path d="M20.3608 99.0369C20.4001 97.4288 21.2008 96.5315 22.7798 96.0804C23.5349 95.8646 25.1769 95.4212 25.8708 95.9609C27.1239 96.9355 28.4 97.4242 30.0368 97.4242" stroke="#102146" stroke-width="2" stroke-linecap="round" stroke-linejoin="round"/>
<path d="M55.0332 96.3493C58.5885 96.3493 60.5276 99.8997 63.9029 100.65C66.4615 101.218 70.0222 100.322 72.0857 98.6339C73.4768 97.4957 75.7154 95.2742 77.6105 95.2742" stroke="#102146" stroke-width="2" stroke-linecap="round" stroke-linejoin="round"/>
</svg>
