<svg width="77" height="187" viewBox="0 0 77 187" fill="none" xmlns="http://www.w3.org/2000/svg">
<path d="M1.41352 17.9719C1.41352 22.1867 1.74523 26.1713 1.74523 30.3554C1.74523 34.0402 1.74523 37.725 1.74523 41.4098C1.74523 45.7729 2.38825 50.3751 1.7268 54.7114C0.359314 63.6765 1.41352 72.8286 1.41352 81.8583C1.41352 89.7035 1.08181 113.238 1.08181 105.393" stroke="#102146" stroke-width="2" stroke-linecap="round" stroke-linejoin="round"/>
<path d="M1.02563 105.972C1.02563 108.359 1.02563 110.746 1.02563 113.132C1.02563 114.204 1.20724 115.233 1.22563 116.291C1.24067 117.155 1.03644 118.284 1.32563 119.099C1.55542 119.747 1.36957 120.495 1.52563 121.173C1.76058 122.192 1.75225 123.452 1.81452 124.5C1.96228 126.984 2.02563 129.44 2.02563 131.937C2.02563 139.479 2.02563 147.022 2.02563 154.564C2.02563 156.432 2.02563 158.301 2.02563 160.169C2.02563 160.988 1.82563 161.75 1.82563 162.604C1.82563 163.288 2.03881 164.488 1.72563 165.099C1.08241 166.355 1.78172 169.033 1.82563 170.367C1.86838 171.666 1.73436 174.271 3.02563 174.972" stroke="#102146" stroke-width="2" stroke-linecap="round" stroke-linejoin="round"/>
<path d="M3.02563 174.972C3.57563 176.264 4.98824 177.796 6.20831 178.492C7.3325 179.133 8.17495 180.313 9.41547 180.863C12.3721 182.175 15.3354 182.948 18.3392 184.102C20.0991 184.778 22.5814 185.092 24.4475 185.092C26.2442 185.092 28.0073 185.752 29.7846 185.752C33.8374 185.752 37.9439 185.972 42.0256 185.972" stroke="#102146" stroke-width="2" stroke-linecap="round" stroke-linejoin="round"/>
<path d="M42.0256 185.899C43.025 185.899 44.5538 186.147 45.4881 185.73C46.2784 185.377 47.9972 185.247 48.8545 185.247C49.9132 185.247 50.9605 185.132 51.9803 184.861C53.3495 184.498 54.8814 184.432 56.1882 183.836C58.4271 182.815 61.0956 182.775 63.3417 181.773C65.2458 180.924 67.0643 179.799 68.9683 178.95C76.3175 175.672 74.9194 165.726 74.9194 158.972" stroke="#102146" stroke-width="2" stroke-linecap="round" stroke-linejoin="round"/>
<path d="M75.0256 158.972C75.0256 150.38 74.0256 141.908 74.0256 133.313C74.0256 125.865 74.5256 118.434 74.5256 110.972" stroke="#102146" stroke-width="2" stroke-linecap="round" stroke-linejoin="round"/>
<path d="M74.5256 110.972C74.5256 103.93 74.0256 96.8937 74.0256 89.8778C74.0256 84.7121 74.2756 79.5359 74.2756 74.392C74.2756 70.5708 75.0256 66.8088 75.0256 62.9719" stroke="#102146" stroke-width="2" stroke-linecap="round" stroke-linejoin="round"/>
<path d="M75.0256 62.9719C75.0256 54.7668 75.0256 46.5617 75.0256 38.3566C75.0256 31.2369 75.0256 24.1208 75.0256 16.9719" stroke="#102146" stroke-width="2" stroke-linecap="round" stroke-linejoin="round"/>
<path d="M75.0256 16.9719C73.0024 16.5563 70.9822 15.3369 69.1843 14.311C68.6602 14.012 67.4189 13.8762 66.8045 13.7761C65.9926 13.6437 65.1187 13.2686 64.3165 13.2686C59.988 13.2686 55.6903 13.0217 51.3357 13.0217C47.8381 13.0217 44.3405 13.0217 40.8429 13.0217C38.6605 13.0217 36.393 12.8115 34.2564 13.2549C32.9003 13.5362 31.4143 13.5155 30.0256 13.5155" stroke="#102146" stroke-width="2" stroke-linecap="round" stroke-linejoin="round"/>
<path d="M30.0256 13.9719C32.1351 15.1509 34.3228 16.1354 36.1421 17.6638C37.631 18.9147 39.6397 19.5565 41.3849 20.3758C44.9744 22.061 48.3699 21.9711 52.3072 21.9711C56.897 21.9711 61.2559 20.6552 65.8509 20.5353C67.7734 20.4852 70.2199 19.8744 71.9674 19.1452C72.7021 18.8386 74.6787 17.9052 75.0256 17.2536" stroke="#102146" stroke-width="2" stroke-linecap="round" stroke-linejoin="round"/>
<path d="M45.0256 21.9719C40.2553 21.9719 35.485 21.9719 30.7148 21.9719C28.8517 21.9719 26.9941 21.5418 25.1735 21.5418C24.2087 21.5418 23.3316 21.3268 22.3667 21.3268C21.7237 21.3268 20.8056 21.4875 20.2105 21.2192C19.5769 20.9336 18.767 21.1509 18.0903 20.9444C17.4674 20.7543 16.6252 20.8967 15.9702 20.8967C14.3876 20.8967 12.3031 20.6166 10.7783 20.144C9.53987 19.7601 7.92258 19.4616 6.64646 19.3913C5.7413 19.3414 4.05594 19.1423 3.3458 18.5789C2.71033 18.0746 1.0306 17.0963 2.83986 16.5836C3.20233 16.4809 2.96032 13.4006 2.96032 12.9397C2.96032 11.2012 3.52081 9.08573 4.15289 7.4558C4.72984 5.96804 4.97512 4.3471 5.77913 2.95161C5.94851 2.65763 6.4924 1.97192 6.86329 1.97192C7.09779 1.97192 7.62424 3.03637 7.94744 3.21446C10.4293 4.58194 13.3957 5.21136 15.9702 6.48805C18.1119 7.55013 20.2239 8.56903 22.427 9.49881C23.125 9.79339 23.7358 10.2593 24.4266 10.5741C25.0893 10.8761 25.8285 10.8959 26.4986 11.2192C27.4037 11.6559 28.3178 12.0729 29.1969 12.5573C29.7124 12.8414 30.8987 13.3643 29.6306 13.1547" stroke="#102146" stroke-width="2" stroke-linecap="round" stroke-linejoin="round"/>
<path d="M22.0256 9.97368C19.9226 9.97368 18.3532 9.88626 16.4166 10.9465C14.1729 12.1747 12.0506 13.4074 10.0128 15.0808C9.05438 15.8678 7.93554 16.7112 6.89149 17.3236C6.37245 17.628 5.1976 18.3668 5.02563 18.9719" stroke="#102146" stroke-width="2" stroke-linecap="round" stroke-linejoin="round"/>
<path d="M29.0256 14.9719C29.0256 16.9878 29.0256 19.0037 29.0256 21.0195C29.0256 22.9139 29.4864 24.7241 29.5971 26.591C29.7228 28.7131 31.0256 30.9285 31.0256 32.9719" stroke="#102146" stroke-width="2" stroke-linecap="round" stroke-linejoin="round"/>
<path d="M48.0256 23.6148C46.4954 25.1232 45.1582 26.8399 43.4121 28.1148C42.349 28.891 41.4083 29.871 40.3686 30.6862C39.1929 31.6081 37.6468 32.1199 36.3348 32.8291C32.8478 34.714 29.2438 34.9719 25.3686 34.9719C21.7827 34.9719 19.1436 33.0671 16.0691 31.4957C11.851 29.3398 8.4872 25.8909 6.2382 21.9005C5.74883 21.0322 4.68069 20.3804 4.54737 19.3291C4.48389 18.8285 3.73716 18.5699 3.67781 18.0434C3.6414 17.7203 3.26464 17.0897 3.02563 16.9719" stroke="#102146" stroke-width="2" stroke-linecap="round" stroke-linejoin="round"/>
<path d="M43.4674 38.9719C42.3735 38.9719 41.2796 38.9719 40.1858 38.9719C39.4414 38.9719 38.8134 38.3725 38.1862 38.02C37.2835 37.5127 35.7482 35.5574 36.069 34.4356C36.1084 34.2976 37.1645 34.1061 37.3275 34.0595C38.2898 33.7848 39.2867 32.9616 40.0799 32.3672C41.5125 31.2937 42.9356 30.242 44.526 29.4057C45.1927 29.0551 45.4264 27.9719 46.3256 27.9719C47.595 27.9719 48.7802 28.0167 50.0307 28.1952C52.331 28.5235 54.643 29.1723 56.9116 29.676C58.2629 29.976 59.5038 30.6252 60.7814 31.098C61.899 31.5115 63.5393 32.2598 64.4277 33.0488C65.1759 33.7133 66.1973 33.7959 66.8507 34.6354C67.9477 36.0445 63.5593 35.9287 62.7339 36.1162C61.1775 36.4696 59.5587 36.2148 57.982 36.598C56.9149 36.8573 55.8114 36.8952 54.7356 37.1151C53.8819 37.2896 53.019 37.6543 52.1479 37.7027C50.162 37.8129 48.2385 38.3373 46.2198 38.3373C44.5157 38.3373 42.8173 38.4808 41.1385 38.7604" stroke="#102146" stroke-width="2" stroke-linecap="round" stroke-linejoin="round"/>
<path d="M1.02563 35.5098C1.86246 34.9555 2.28463 34.6015 2.68801 35.6219C3.06367 36.5723 3.67246 37.3811 4.07947 38.291C4.19296 38.5447 4.57203 38.9808 4.57203 38.4368C4.57203 37.7844 5.44039 38.6938 5.69259 38.8517C6.22103 39.1826 6.58347 39.3799 7.23182 39.3451C7.52797 39.3293 7.6378 38.728 7.99528 39.0536C8.30196 39.3329 8.21241 39.9218 8.78337 39.9507C9.52504 39.9883 8.954 39.5139 9.27592 39.1881C9.80667 38.6511 10.739 40.1526 11.2215 40.1526C11.7371 40.1526 11.4942 39.6347 11.7879 39.5582C12.1952 39.4522 13.0212 39.9365 13.4257 40.0517C14.2892 40.2974 15.143 39.7489 16.0978 39.7489C17.1117 39.7489 18.1915 39.8398 19.2009 39.7377C19.7084 39.6863 20.2314 39.4021 20.7524 39.5919C21.1554 39.7387 21.5195 39.9507 21.9592 39.9507C23.227 39.9507 23.5792 39.2023 24.7421 39.704C25.4713 40.0186 26.5302 39.4244 27.1803 39.9507C28.2917 40.8505 29.8344 39.0992 30.8006 39.6592C31.5417 40.0887 31.2472 40.4065 32.1797 40.1638C32.6747 40.035 33.1695 40.3441 33.6574 40.3545C34.4076 40.3703 35.0863 40.1526 35.8246 40.1526C37.2589 40.1526 38.6901 40.3545 40.1468 40.3545C40.7945 40.3545 41.3283 40.8259 41.9815 40.9152C42.6514 41.0067 43.349 40.96 44.0256 40.96" stroke="#102146" stroke-width="2" stroke-linecap="round" stroke-linejoin="round"/>
<path d="M43.523 41.3126C44.8546 42.3519 46.2166 44.214 47.1626 41.7596C47.6645 40.4575 47.8095 39.4281 49.3801 39.798C49.783 39.8928 50.5347 40.2905 50.8986 39.9718C51.3356 39.5892 51.5745 39.0963 52.2002 39.0779C53.1653 39.0495 55.1316 39.8732 55.876 38.9786C56.2553 38.5227 57.3824 39.3787 57.9489 39.2889C58.526 39.1975 58.9375 38.7136 59.5518 38.6433C60.0391 38.5876 60.4827 38.8544 60.9739 38.8544C61.8198 38.8544 61.6678 38.0404 62.5045 38.5192C63.296 38.9722 63.428 37.9223 64.1315 37.9605C64.6177 37.9869 64.9303 38.4227 65.433 38.4074C66.015 38.3898 66.3337 37.7372 66.7346 37.3894C67.0538 37.1125 67.2901 37.905 67.5541 37.6874C67.8245 37.4646 67.7148 36.9774 68.0362 36.7934C68.6898 36.4194 69.6842 37.251 70.2055 36.7438C71.1025 35.8711 71.4947 35.818 72.7002 36.5079C72.9983 36.6785 73.0256 36.3512 73.0256 36.7314C73.0256 37.2442 72.7428 36.6445 72.4954 36.6445C72.245 36.6445 72.1659 38.541 71.1938 36.9673C70.9158 36.5173 71.1683 37.1746 71.0492 37.3894C70.7783 37.8776 70.0723 37.1528 69.8922 36.9673C69.3338 36.3921 70.3426 38.5486 68.9039 37.0666C68.7667 36.9252 67.6608 35.6507 67.4336 36.0485C67.2092 36.4416 67.4186 37.2428 67.3854 37.6874C67.3036 38.7834 64.9621 36.5755 65.2643 37.6874C65.6727 39.1898 64.1 37.7671 63.3119 37.737C62.0313 37.6882 63.9071 40.0416 62.1791 38.9537C62.0476 38.8709 60.9222 37.9703 60.8895 38.1219C60.7673 38.6887 61.2591 39.3129 61.0703 39.8476C60.5528 41.3137 56.2497 37.6495 56.1412 38.4323C56.1145 38.6245 56.5784 39.6055 56.0688 39.3758C55.3176 39.0373 54.7047 38.4258 53.9477 38.0846C52.9416 37.6312 54.816 40.2215 52.6341 38.5813C50.8982 37.2763 52.5813 39.9446 51.2361 39.9718C50.3669 39.9893 49.7387 39.892 48.9463 39.5745C48.767 39.5027 49.0206 40.5713 48.8981 40.7664C48.4855 41.4232 45.5437 38.4107 46.56 40.7664C47.3508 42.5992 43.2093 40.3068 42.6794 39.8973C42.3449 39.6388 42.9509 40.7556 42.8601 41.1761C42.7741 41.5747 41.2294 40.7513 41.0403 40.6422C40.6903 40.4403 39.9174 39.6814 40.3775 40.4187C40.9116 41.2747 40.4494 41.3126 39.5821 41.3126C38.5625 41.3126 37.3869 40.9546 36.3884 41.1016C35.8885 41.1751 36.6038 41.5911 35.7858 41.5237C34.4944 41.4173 33.2876 40.8657 32.0256 40.8657" stroke="#102146" stroke-width="2" stroke-linecap="round" stroke-linejoin="round"/>
<path d="M2.02563 152.972C3.56435 154.526 5.31501 155.325 6.99861 156.613C8.0981 157.454 9.12791 158.47 10.41 159.032C13.8392 160.535 17.158 162.03 20.7403 163.184C28.6405 165.729 37.3914 166.532 45.6533 165.591C51.1114 164.969 57.1642 163.75 62.1337 161.276C64.3244 160.186 66.6977 159.713 68.8244 158.471C69.7233 157.946 70.5569 157.287 71.5271 157C71.8218 156.912 72.1143 156.393 72.404 156.226C72.9178 155.93 73.4752 155.631 74.0256 155.441" stroke="#102146" stroke-width="2" stroke-linecap="round" stroke-linejoin="round"/>
</svg>
