<svg width="106" height="191" viewBox="0 0 106 191" fill="none" xmlns="http://www.w3.org/2000/svg">
<path d="M5.10458 17.8774C3.87696 19.4488 2.97721 21.1196 2.54742 23.0537C2.3285 24.0389 1.91919 25.0057 1.91919 26.0356C1.91919 27.1121 1.91919 28.1887 1.91919 29.2652C1.91919 31.3832 2.81133 32.9053 3.36147 34.8308C3.6175 35.7269 4.1696 37.3087 4.78604 38.0339C5.11779 38.4242 5.58647 38.9541 5.74166 39.4585C5.91846 40.0331 6.53294 40.5158 6.68843 41.06C6.945 41.958 7.6723 42.9816 8.21034 43.7588C9.02552 44.9362 10.0007 46.3455 10.9976 47.3423C12.1124 48.4572 13.3328 49.4351 14.6608 50.2888C15.8369 51.0449 17.1141 51.4445 18.324 52.085C20.3335 53.1489 22.268 54.3125 23.8984 55.9429C24.3756 56.4201 24.9281 56.8134 25.4115 57.2967C25.9114 57.7967 26.1116 58.427 26.6768 58.8894C27.8364 59.8382 28.2743 61.4337 29.3136 62.473" stroke="#102146" stroke-width="2" stroke-linecap="round" stroke-linejoin="round"/>
<path d="M29.1543 62.4729C29.4657 63.2168 30.0015 63.7072 30.34 64.3841C30.6293 64.9628 30.8181 65.5955 31.2248 66.1184C31.8887 66.9719 32.3989 67.8209 32.9768 68.7198C34.1708 70.5771 34.8917 72.7251 36.0825 74.5774C37.1072 76.1713 38.5805 77.7093 39.3476 79.4351C39.6555 80.128 40.789 81.015 41.3827 81.426C42.0953 81.9194 42.5932 82.8929 43.3293 83.3018C43.7719 83.5478 44.3823 84.2015 44.6831 84.6025C45.0873 85.1415 45.6005 85.4197 45.913 86.0448C46.1897 86.5982 46.4468 87.1649 46.7536 87.7171C47.0844 88.3125 47.0784 89.0662 47.3907 89.6284C47.6657 90.1235 47.7576 91.0573 47.7889 91.6193C47.8331 92.4166 48.1074 93.1785 48.1074 94.0083C48.1074 94.5802 48.7822 97.99 48.2667 97.99" stroke="#102146" stroke-width="2" stroke-linecap="round" stroke-linejoin="round"/>
<path d="M48.2666 97.8308C48.2666 100.005 48.2666 102.178 48.2666 104.352C48.2666 107.3 48.5851 110.229 48.5851 113.191C48.5851 116.293 48.1073 119.36 48.1073 122.447C48.1073 126.315 47.7888 130.18 47.7888 134.047C47.7888 136.144 47.7299 138.285 47.5499 140.374C47.3186 143.057 47.4422 145.765 47.1871 148.443C46.9486 150.948 46.5146 153.451 46.5146 155.964C46.5146 157.838 46.3554 159.68 46.3554 161.539C46.3554 162.984 45.8776 164.433 45.8776 165.839" stroke="#102146" stroke-width="2" stroke-linecap="round" stroke-linejoin="round"/>
<path d="M45.7184 165.68C45.7184 167.892 44.756 169.923 43.7718 171.891C43.3077 172.819 42.6748 173.739 41.7366 174.156C41.4051 174.304 40.893 174.439 40.5421 174.439C39.9842 174.439 39.4368 174.889 38.8698 174.917C37.7482 174.973 36.479 175.27 35.4012 175.59C34.2135 175.942 32.921 175.806 31.738 176.156C30.42 176.547 28.4969 176.191 27.1192 176.191C25.8598 176.191 24.6004 176.191 23.341 176.191C21.0133 176.191 18.8427 176.035 16.6605 176.828C14.3421 177.672 13.5459 180.106 13.5459 182.403C13.5459 184.567 16.0373 186.259 17.8816 186.898C19.9013 187.597 21.9216 188.327 24.0223 188.738C26.2426 189.173 28.6466 189.252 30.9063 189.252C35.5523 189.252 40.1985 189.411 44.8601 189.411C47.8969 189.411 50.8609 188.912 53.8942 188.783C55.8296 188.7 57.7199 188.539 59.6456 188.331C61.9683 188.08 64.3544 188.124 66.6623 187.73C70.3461 187.101 73.9857 186.035 77.6431 185.279C79.9434 184.803 82.1714 184.073 84.0228 182.633C84.6856 182.117 85.7575 179.946 85.1288 179.138C83.7593 177.377 81.1085 177.18 79.1296 176.793C76.9116 176.359 74.6254 176.51 72.3518 176.51C69.6753 176.51 67.0275 176.669 64.3529 176.669C63.5224 176.669 62.6212 176.764 61.7958 176.66C60.9275 176.552 60.313 176.035 59.5395 175.749C58.031 175.19 56.7586 173.406 55.9913 172.042C53.6288 167.842 54.0004 163.222 54.0004 158.512" stroke="#102146" stroke-width="2" stroke-linecap="round" stroke-linejoin="round"/>
<path d="M54.0004 158.513C54.0004 156.972 54.1596 155.396 54.1596 153.885C54.1596 152.634 54.4782 151.431 54.4782 150.195C54.4782 146.311 54.7967 142.486 54.7967 138.604C54.7967 133.897 54.7967 129.189 54.7967 124.482C54.7967 122.397 54.7967 120.311 54.7967 118.226C54.7967 117.808 55.0217 116.18 54.6374 115.988" stroke="#102146" stroke-width="2" stroke-linecap="round" stroke-linejoin="round"/>
<path d="M54.4781 116.147C54.4781 114.354 54.4781 112.56 54.4781 110.767C54.4781 109.795 54.6374 108.82 54.6374 107.874C54.6374 106.883 54.4997 105.777 54.6728 104.803C54.9206 103.409 54.9931 101.884 55.1064 100.468C55.2211 99.0335 55.3701 97.633 55.5576 96.2027C55.8142 94.2462 55.9978 91.8326 57.2211 90.1859C58.1709 88.9073 59.5671 87.9524 60.4065 86.6465C61.2627 85.3148 63.1376 84.5129 63.9105 83.178C64.7316 81.7596 66.6064 81.0748 67.3436 79.6741C68.0642 78.3049 68.8269 76.4742 69.9273 75.3738" stroke="#102146" stroke-width="2" stroke-linecap="round" stroke-linejoin="round"/>
<path d="M69.2903 76.0107C71.0303 73.6181 72.0247 70.8881 73.5906 68.4012C75.073 66.0466 75.3365 63.2104 76.5813 60.7208C77.3432 59.197 78.799 57.7902 79.8906 56.5002C81.4065 54.7086 83.5072 53.0107 85.6066 51.961C86.4684 51.53 87.2195 51.1958 87.9248 50.5276C88.551 49.9343 89.5226 49.6665 90.2343 49.1738C91.352 48.3999 92.3743 47.4551 93.4993 46.7051" stroke="#102146" stroke-width="2" stroke-linecap="round" stroke-linejoin="round"/>
<path d="M93.4993 46.705C94.4797 45.0972 95.8369 43.7817 96.6847 42.0862C97.7102 40.0351 98.7893 38.0277 99.7108 35.9543C100.799 33.5057 101.144 30.9084 101.144 28.2297" stroke="#102146" stroke-width="2" stroke-linecap="round" stroke-linejoin="round"/>
<path d="M101.144 28.2298C99.8398 28.6917 98.3302 29.684 97.2421 30.5303C96.433 31.1596 94.9442 30.9374 93.977 30.9374C92.6744 30.9374 91.7951 31.4488 90.5527 31.7249C89.5028 31.9582 88.3686 32.8486 87.2877 32.8486C86.2136 32.8486 84.9556 32.5647 84.7305 31.3267C84.6257 30.7501 83.9518 30.1674 83.6599 29.6632C83.2646 28.9805 82.9125 28.2909 82.545 27.5927C81.5209 25.6469 80.8997 23.5765 79.9613 21.6997" stroke="#102146" stroke-width="2" stroke-linecap="round" stroke-linejoin="round"/>
<path d="M4 20C5.76576 20 7.33968 20.3666 9.10246 20.3666C9.7856 20.3666 10.5795 20.5182 11.2379 20.6043C12.3271 20.7466 13.4817 20.6811 14.5829 20.8283C18.5839 21.3632 22.7473 21.2298 26.8004 21.3511C30.1992 21.4529 33.6029 21.659 36.9959 21.8603C41.0933 22.1034 45.2638 21.9554 49.3741 21.9554C55.7974 21.9554 62.2225 21.8962 68.6311 21.8331C70.4971 21.8148 72.33 21.5887 74.2061 21.5887C75.4376 21.5887 76.6691 21.5887 77.9006 21.5887C80.9337 21.5887 83.9669 21.5887 87 21.5887" stroke="#102146" stroke-width="2" stroke-linecap="round" stroke-linejoin="round"/>
<path d="M4.78601 17.8774C7.46886 17.8774 10.1696 17.9582 12.8291 17.727C15.5367 17.4915 18.3108 17.2403 21.0315 17.2403C27.2843 17.2403 33.6151 17.0811 39.8961 17.0811C42.476 17.0811 45.0419 17.5589 47.6296 17.5589C50.7171 17.5589 53.8566 17.3955 56.938 17.5943C60.6057 17.8309 64.2735 18.1959 67.9453 18.1959C71.4308 18.1959 74.8828 18.0367 78.3686 18.0367" stroke="#102146" stroke-width="2" stroke-linecap="round" stroke-linejoin="round"/>
<path d="M80.2799 22.6554C80.2799 20.5658 78.528 18.9785 78.528 16.7978C78.528 14.3005 80.0022 12.2621 81.7133 10.5509C83.2713 8.99294 85.4518 7.52479 87.7656 7.52479C88.8333 7.52479 90.1412 7.31386 91.1457 7.64867C92.6314 8.14391 94.1708 8.49592 95.6937 8.83434C96.5351 9.02133 97.4807 9.69688 98.2774 10.0731C99.0678 10.4463 99.7446 10.9313 100.507 11.3473C101.297 11.7782 102.541 12.4442 103.02 13.2585C103.219 13.5975 103.578 14.065 103.852 14.3734C104.137 14.6941 103.961 15.306 104.206 15.6122C104.637 16.1508 104.489 17.6627 104.489 18.3551C104.489 19.47 104.489 20.5849 104.489 21.6998C104.489 22.288 104.538 22.8542 104.365 23.4164C104.258 23.7647 104.349 24.5818 104.135 24.8498C103.615 25.4997 103.538 26.52 102.737 26.9911C102.384 27.1989 102.034 27.4286 101.746 27.7167C101.159 28.3035 100.705 28.5457 99.8701 28.8669" stroke="#102146" stroke-width="2" stroke-linecap="round" stroke-linejoin="round"/>
<path d="M90.951 8.00259C89.2969 7.35711 87.9554 5.88496 86.9781 4.41902C86.5645 3.79857 86.4915 3.15259 86.4915 2.42815C86.4915 1.52572 87.2693 3.42019 87.4117 3.57843C88.6174 4.91813 90.3776 5.67721 91.6677 6.96734C92.4261 7.72577 94.3898 8.95821 95.4902 8.95821C96.1399 8.95821 96.7012 9.27675 97.3218 9.27675C97.9589 9.27675 98.596 9.27675 99.233 9.27675C99.89 9.27675 100.485 9.20062 101.065 8.87858C101.339 8.72617 101.781 8.6219 102.003 8.40077C102.148 8.25576 101.052 8.00259 100.897 8.00259C97.9673 8.00259 95.0373 7.68405 92.0659 7.68405C91.3656 7.68405 90.951 7.77777 90.951 6.96734C90.951 6.68755 92.0072 6.39364 92.3048 6.16214C92.9934 5.62659 93.6633 5.38684 94.4549 5.01186C95.1732 4.67166 96.1202 4.83879 96.844 4.53405C97.0993 4.42653 97.6143 4.33939 97.8881 4.33939C98.3569 4.33939 98.5717 4.12356 98.9941 4.0297C100.135 3.77606 99.5679 4.98954 99.1445 5.53391C98.7833 5.9984 97.7269 6.10731 97.1537 6.25063C96.1227 6.50838 95.2082 7.56163 94.216 8.00259C93.9934 8.10153 92.7249 8.69371 92.703 8.32113C92.6655 7.68424 92.803 7.14039 93.0569 6.56916C93.4072 5.78112 92.8832 5.22634 92.6233 4.49866C92.364 3.77246 92.239 2.77826 91.6589 2.1981C91.1911 1.73035 90.8552 1.54938 90.1547 1.6318C89.6705 1.68876 90.4732 3.68649 90.4732 4.02085C90.4732 5.58001 90.9088 6.96259 91.5881 8.32113" stroke="#102146" stroke-width="2" stroke-linecap="round" stroke-linejoin="round"/>
<path d="M5.12183 38.3868C5.72389 38.3868 6.13407 38.1793 6.22978 38.8014C6.29333 39.2145 6.81423 39.1277 7.08624 39.0461C8.15198 38.7264 8.73285 37.9028 9.77115 38.5703C10.6099 39.1095 11.6609 38.4759 12.558 38.5091C12.8738 38.5208 13.0957 38.7538 13.4689 38.7538C13.8338 38.7538 14.1901 38.6107 14.5428 38.6315C14.6828 38.6397 14.8613 38.8818 15.039 38.9373C15.5385 39.0934 16.1497 38.9985 16.6704 38.9985C16.946 38.9985 17.1579 39.214 17.4385 39.2364C18.116 39.2906 18.7605 39.1209 19.4301 39.1209C21.5575 39.1209 23.6768 39.3656 25.7991 39.3656C26.4838 39.3656 26.9138 39.855 27.6955 39.855C28.0886 39.855 28.2548 39.9259 28.5588 40.0997C28.9421 40.3187 29.467 40.222 29.8911 40.222C32.1429 40.222 34.4255 40.6391 36.6339 40.0045C37.233 39.8324 37.7907 39.8863 38.4012 39.8482C39.0318 39.8088 39.6584 39.6103 40.2909 39.6103C41.0517 39.6103 41.6316 40.0337 42.3708 40.0929C44.1559 40.2357 46.0955 40.4305 47.8222 39.855" stroke="#102146" stroke-width="2" stroke-linecap="round" stroke-linejoin="round"/>
<path d="M47.8223 39.855C48.3212 39.855 49.2905 39.5786 49.2905 40.2221C49.2905 40.6936 49.569 40.5882 49.9838 40.4532C51.1214 40.0828 52.183 39.5179 53.3145 39.1277C53.5211 39.0565 54.7398 38.509 54.9186 38.8219C55.0761 39.0975 55.4431 39.0045 55.7071 38.9306C55.9708 38.8568 56.2767 38.6787 56.5635 38.7607C56.7367 38.8101 56.7173 39.1714 56.951 39.2433C58.6306 39.7601 60.5025 39.1209 62.1849 39.4948C62.4038 39.5434 62.6413 39.737 62.8986 39.7871C63.6347 39.9302 64.4292 39.855 65.1757 39.855C65.5585 39.855 65.6503 39.9004 65.9506 40.0318C66.4 40.2284 67.0886 40.0997 67.5683 40.0997C68.287 40.0997 69.0192 40.1436 69.723 39.9774C70.5044 39.7929 70.8867 39.8376 71.6535 39.855C71.9175 39.861 72.1187 39.9264 72.3196 40.0726C72.5729 40.2567 73.4237 40.0997 73.7062 40.0997C74.2033 40.0997 74.7048 40.0806 75.2016 40.0997C75.422 40.1082 75.4647 40.3444 75.8134 40.3444C76.2225 40.3444 76.5556 40.1201 76.9417 40.0997C77.3406 40.0788 77.7387 40.1125 78.1381 40.0726C78.9455 39.9918 79.6796 40.086 80.4219 40.0997C82.1169 40.1311 87.2016 39.9774 85.5063 39.9774" stroke="#102146" stroke-width="2" stroke-linecap="round" stroke-linejoin="round"/>
<path d="M85.5062 39.9775C86.7203 39.7406 87.736 39.0263 88.8573 38.5228C89.167 38.3838 90.3128 37.8209 90.6178 38.2646C90.8665 38.6263 92.221 38.2786 92.5822 38.2034C93.0593 38.104 92.9599 38.3742 93.2143 38.3869C94.2524 38.4388 95.253 38.1422 96.3003 38.1422C96.8841 38.1422 97.7118 38.0051 98.2307 38.2646" stroke="#102146" stroke-width="2" stroke-linecap="round" stroke-linejoin="round"/>
<path d="M2.55249 31.1681C2.9151 31.1681 3.66344 31.0167 4.0207 31.1953C4.4568 31.4134 4.61994 31.888 5.18983 31.9022C6.10823 31.9252 6.64014 31.067 7.59606 31.0458C8.14004 31.0337 8.6473 30.6787 9.15943 30.6787C9.30978 30.6787 9.35952 31.0461 9.43132 31.1681C9.59412 31.4449 9.99031 31.0492 10.1382 30.9234C10.5305 30.59 10.574 31.0601 10.7772 31.2633C11.3966 31.8827 12.4176 31.0071 13.0747 31.0458C13.2801 31.0579 13.4397 31.452 13.7136 31.508C14.2744 31.6227 14.924 31.5352 15.4945 31.5352C15.9706 31.5352 15.8236 31.8425 16.1334 31.9974C16.4548 32.1581 17.1718 32.0389 17.4793 31.9022C18.1991 31.5823 18.0514 32.9078 18.8863 32.2013C19.0241 32.0847 19.4155 31.6711 19.6136 31.6711C19.7601 31.6711 19.8635 32.2138 19.9263 32.3236C20.244 32.8797 21.5976 31.7799 21.9451 31.7799C22.2636 31.7799 22.1963 32.1927 22.5025 32.2693C23.0547 32.4073 23.6404 32.4546 24.2018 32.3236C24.3627 32.2861 25.2162 31.8065 25.3097 31.9702C25.4554 32.2251 25.4746 32.3916 25.8059 32.3916C26.4369 32.3916 28.1743 31.1099 28.6676 31.6031C29.4274 32.3629 30.1382 31.8418 31.1146 31.6643C31.3652 31.6188 31.5016 31.9022 31.7943 31.9022C32.1786 31.9022 32.4777 31.8659 32.8343 31.7867C33.115 31.7243 33.1673 32.1031 33.3917 32.2013C33.6474 32.3132 33.9673 32.2693 34.2413 32.2693" stroke="#102146" stroke-width="2" stroke-linecap="round" stroke-linejoin="round"/>
<path d="M34.2413 32.2694C34.4501 32.2694 34.8978 32.1722 35.0298 32.3985C35.1182 32.55 35.1221 32.7201 35.2949 32.8132C36.1865 33.2932 37.4609 32.1287 38.0954 31.6644C38.4535 31.4024 38.7967 31.1682 39.2509 31.1682C39.5302 31.1682 39.4377 31.3315 39.6384 31.4605C40.1082 31.7625 40.602 31.2705 41.0318 31.175C41.2297 31.131 41.3719 31.6169 41.7115 31.6508C42.4148 31.7211 43.035 31.4129 43.7167 31.4129C44.2506 31.4129 44.7544 31.5558 45.3141 31.5285C45.6098 31.514 47.0989 31.0023 47.2037 31.4741C47.28 31.8173 47.7961 31.807 48.0942 31.7528C48.6321 31.655 48.861 31.5142 49.2905 31.7528C49.8167 32.0451 50.5606 31.8988 51.0714 31.6576C51.4253 31.4905 51.5113 31.6576 51.887 31.6576C52.5631 31.6576 53.178 31.4466 53.8174 31.4129C53.9525 31.4058 54.0281 31.399 54.0622 31.5353C54.1126 31.7372 54.5811 31.6576 54.7283 31.6576C55.1413 31.6576 56.0576 31.469 56.3868 31.78C56.7092 32.0844 56.9283 32.147 57.3656 32.147" stroke="#102146" stroke-width="2" stroke-linecap="round" stroke-linejoin="round"/>
<path d="M57.3656 32.147C58.1468 32.147 58.8312 32.0573 59.4456 32.3645C60.55 32.9167 62.3381 31.456 63.3336 31.1138C64.046 30.8689 64.293 31.2906 65.0125 31.2906C65.6094 31.2906 66.0064 30.9998 66.4196 31.4129C67.0192 32.0125 68.4687 31.6129 69.1792 31.4401C69.5783 31.343 69.8555 31.6576 70.2804 31.6576C71.4838 31.6576 72.6945 31.5353 73.8829 31.5353" stroke="#102146" stroke-width="2" stroke-linecap="round" stroke-linejoin="round"/>
<path d="M73.8829 31.5352C73.9655 31.477 74.4861 31.0308 74.6034 31.2362C74.6877 31.3836 74.6385 31.4348 74.8685 31.4061C75.7865 31.2913 76.5479 30.4546 77.4855 30.3253C78.0898 30.242 78.4424 30.5162 78.9945 30.5496C79.772 30.5968 80.917 30.0605 81.6454 30.3253C82.035 30.467 81.9545 31.1329 82.4475 31.2633C82.8491 31.3697 82.93 31.2952 83.2768 31.5352C83.7088 31.8344 84.3205 31.8834 84.7722 31.6576" stroke="#102146" stroke-width="2" stroke-linecap="round" stroke-linejoin="round"/>
<path d="M38.6858 77.8081C39.6868 77.8081 40.5761 77.833 41.5539 78.0807C43.4508 78.5613 45.4213 78.9901 47.371 79.1714C49.2109 79.3426 51.1241 79.3532 52.9709 79.3532C55.1612 79.3532 57.4341 79.5274 59.611 79.2825C61.121 79.1126 62.5772 78.7589 64.0344 78.3332C64.959 78.0631 65.8026 77.828 66.549 77.2173C66.8183 76.997 67.3083 76.747 67.6397 76.6265C67.9943 76.4975 68.4184 75.9902 68.7708 75.9902" stroke="#102146" stroke-width="2" stroke-linecap="round" stroke-linejoin="round"/>
</svg>
